<?xml version="1.0" standalone="no"?>
<!DOCTYPE svg PUBLIC "-//W3C//DTD SVG 1.1//EN" "http://www.w3.org/Graphics/SVG/1.1/DTD/svg11.dtd" >
<svg xmlns="http://www.w3.org/2000/svg">
    <defs>
        <font id="">
            <font-face font-family=""
                       units-per-em="256"
                       ascent="218"
                       descent="-38"
                       bbox="-13 -59 272 221"
                    />
            <missing-glyph horiz-adv-x="0" />
            
            <glyph glyph-name="!" unicode="&#x21;" horiz-adv-x="42" d=" M10,0 L9,0 Q4,0 4,4 Q5,14 11,15 Q16,15 16,8 Q15,0 10,0 M42,129 L19,36 L13,36 L32,129"/> 
            <glyph glyph-name="J" unicode="&#x4A;" horiz-adv-x="104" d=" M24,-31 L23,-25 Q72,-10 74,58 Q83,107 93,123 Q88,123 77,124 L60,124 Q10,122 10,107 Q13,79 52,64 L49,58 Q7,76 5,102 Q5,132 64,130 Q68,130 82,129 Q88,129 90,129 Q99,128 104,128 Q90,113 82,58 Q82,-13 24,-31"/> 
            <glyph glyph-name="S" unicode="&#x53;" horiz-adv-x="115" d=" M115,124 L114,117 Q89,124 72,124 Q30,123 29,93 Q29,80 63,71 Q103,60 104,40 Q100,4 46,0 Q24,0 4,8 L6,15 Q33,5 51,5 Q95,4 95,38 Q95,53 60,63 Q21,74 21,92 Q24,126 80,130 Q99,130 115,124"/> 
            <glyph glyph-name="业" unicode="&#x4E1A;" horiz-adv-x="216" d=" M130,163 Q143,163 158,141 L159,117 L158,105 Q159,101 162,101 L172,104 Q192,97 192,81 Q181,63 168,63 Q155,57 155,44 L154,27 Q155,23 159,23 L178,26 Q213,22 213,7 L214,6 L216,2 Q213,-8 209,-8 L207,-5 L208,2 Q208,15 186,15 Q174,15 124,4 Q108,2 63,-11 Q35,-5 35,2 L35,4 L41,13 L42,13 Q42,3 46,3 L50,3 Q69,3 90,11 L130,18 L137,18 L140,21 Q140,31 128,46 L128,48 L123,48 L122,36 L123,32 L120,28 Q108,28 108,46 L110,58 L109,59 L105,59 Q101,43 91,43 L90,43 Q70,50 70,73 L70,74 Q70,80 77,83 Q81,54 89,54 L100,64 L103,64 L106,62 L109,62 L109,75 Q109,96 100,121 L100,123 L104,123 Q117,106 122,76 Q122,61 130,58 L133,58 Q141,58 144,69 L143,91 L144,100 L143,100 L146,121 L145,122 L145,123 Q147,126 147,134 L147,137 Q143,153 135,153 L127,160 M161,100 L156,94 L156,74 L159,71 Q168,71 179,88 L179,92 Q174,100 161,100 M136,49 L137,46 L140,46 L142,48 L142,49 L140,51 L139,51"/> 
            <glyph glyph-name="件" unicode="&#x4EF6;" horiz-adv-x="219" d=" M142,172 Q156,172 161,144 Q161,128 165,128 Q176,128 179,116 Q179,113 166,105 L166,103 Q166,98 190,94 L211,95 L219,85 L219,84 Q219,81 177,73 Q173,69 160,67 Q154,57 149,14 L150,11 Q148,7 148,-2 L148,-21 L146,-23 L143,-23 Q140,-23 140,-14 L139,-14 L140,-13 L140,21 L144,54 L144,55 Q144,58 140,58 Q134,54 110,47 Q106,45 80,41 Q77,38 77,35 L77,32 L78,27 Q75,-1 71,-1 L69,-1 Q65,1 61,9 L64,37 L63,42 L64,55 Q64,65 56,69 L54,69 Q49,69 39,59 L36,59 Q34,59 30,66 L30,69 Q51,85 63,106 Q86,140 86,150 L86,151 Q86,155 81,160 L81,162 L85,162 Q96,155 96,143 Q92,127 59,81 L59,79 Q73,55 78,55 L85,53 Q110,56 125,63 Q147,69 147,78 L147,85 L145,87 L142,87 L105,64 L104,64 L104,65 L121,80 L121,82 Q112,89 112,100 Q123,116 123,138 L119,146 L123,151 Q130,151 134,128 Q132,124 132,117 L132,112 L135,112 Q143,112 148,119 L148,120 L149,136 L148,137 L148,138 L149,143 Q149,163 136,163 L136,167 Q136,169 142,172 M163,95 Q161,93 160,81 L163,79 Q178,81 178,85 L178,87 Q178,90 171,90 Q166,95 163,95"/> 
            <glyph glyph-name="例" unicode="&#x4F8B;" horiz-adv-x="209" d=" M191,175 L193,175 Q209,163 209,141 L209,137 Q202,105 198,67 Q199,30 205,-17 Q203,-24 201,-24 L200,-24 Q189,-24 155,1 Q150,7 150,11 L151,11 Q175,-7 188,-7 Q191,-6 192,-3 L187,48 Q189,90 198,142 L198,157 Q198,160 191,171 M99,159 Q109,157 109,146 L109,145 Q109,132 83,95 L78,86 L78,83 L82,68 L81,67 L81,65 Q81,61 87,54 L87,47 L90,47 Q99,60 101,71 Q106,71 125,101 L125,102 Q102,105 102,110 Q102,113 127,116 Q147,126 157,135 Q165,131 167,127 L167,126 Q131,98 125,81 Q135,72 139,72 Q144,75 151,99 L157,105 Q167,101 167,91 L174,58 Q172,53 170,53 L168,53 L158,65 L158,73 Q158,78 154,80 L153,80 L138,39 Q138,34 122,25 Q122,13 103,6 Q94,6 87,32 L84,32 Q83,32 73,-10 L71,-10 L71,-11 Q64,-11 60,2 Q60,10 71,48 L70,51 L72,65 L72,72 L69,73 Q57,61 53,61 L47,61 Q45,61 41,68 L41,71 Q48,91 65,91 Q81,107 95,139 Q99,148 99,157 M118,62 L118,60 L122,56 L123,56 L126,59 L126,63 L123,66 L122,66 M96,22 L99,20 L104,20 Q117,33 117,40 L117,43 Q117,48 112,51 L110,51 Q104,51 96,22"/> 
            <glyph glyph-name="务" unicode="&#x52A1;" horiz-adv-x="207" d=" M112,176 Q115,176 118,169 Q104,138 104,129 L107,127 L108,127 L122,130 L123,130 Q132,130 134,116 Q134,109 121,96 Q116,88 116,85 L127,79 L132,79 L184,71 Q184,70 199,68 L207,55 L207,53 L205,53 L205,52 L204,53 L186,53 L177,52 Q172,52 170,60 Q151,63 139,67 L136,67 Q124,67 120,43 L120,41 Q130,31 132,21 Q122,-2 104,-20 L103,-21 L102,-21 Q98,-21 90,-10 L87,-9 Q85,-9 69,-26 L67,-26 Q61,-22 57,-16 Q57,-14 65,-10 Q65,-6 81,6 L92,22 Q91,26 89,26 L74,21 Q70,21 66,29 L69,37 L68,38 L67,38 L58,36 Q49,36 42,45 L42,46 L43,46 Q68,46 83,69 Q86,70 86,75 Q60,85 56,98 Q48,107 43,118 L43,121 L44,121 Q63,96 68,96 Q74,89 98,86 Q102,88 117,109 L117,112 Q117,114 114,114 Q102,110 96,110 Q92,111 87,123 Q109,174 112,176 M70,37 L73,37 Q107,37 107,47 Q107,50 116,63 L116,67 Q114,71 109,71 L105,71 Q70,43 70,37 M97,2 Q97,-2 100,-6 Q104,-5 119,21 L119,25 L116,28 Q110,28 100,11 Q98,11 97,2"/> 
            <glyph glyph-name="动" unicode="&#x52A8;" horiz-adv-x="209" d=" M188,159 Q192,157 194,154 Q187,125 182,117 Q183,113 189,113 Q197,113 197,115 Q204,115 209,96 Q197,52 183,25 Q183,8 171,2 L170,2 Q164,2 154,33 L154,37 L148,37 Q148,33 137,10 Q137,-3 123,-7 L119,-7 Q111,-1 111,3 L112,3 Q121,5 125,11 Q153,73 158,95 L157,96 L152,96 L141,94 L140,94 L137,97 Q137,103 161,109 Q169,109 186,158 L188,158 M93,156 L95,156 Q106,143 122,143 Q122,140 131,128 L131,127 L119,119 L117,119 Q114,120 108,134 Q99,138 92,153 M115,107 Q121,104 121,99 L121,97 Q112,88 101,74 L101,68 Q107,50 110,50 L120,51 L121,50 L121,47 Q116,24 110,24 Q106,24 98,40 L95,40 Q87,24 78,24 Q68,24 65,40 Q71,55 88,76 Q92,79 92,84 L92,86 L90,86 L84,85 L81,86 L59,81 Q40,84 40,89 L40,90 L42,92 L63,92 Q70,92 94,100 M156,58 Q162,21 167,21 L168,21 Q172,21 190,76 Q194,79 196,89 L196,101 Q196,103 191,104 Q172,101 172,91 M84,55 L81,48 L84,46 L89,51 L89,53 L87,55"/> 
            <glyph glyph-name="好" unicode="&#x597D;" horiz-adv-x="222" d=" M180,153 Q186,153 194,137 Q185,117 168,100 L168,97 L171,94 L175,94 L209,103 Q222,96 222,88 Q222,84 217,82 Q212,82 208,90 Q182,90 182,78 L185,53 Q182,3 174,3 L173,3 Q157,8 135,33 Q129,46 104,54 L101,55 L99,55 L99,52 Q109,24 121,10 Q123,10 124,3 Q122,-1 120,-2 L118,-2 Q88,31 76,31 Q63,28 56,22 Q51,24 51,26 L51,29 Q51,31 64,40 L64,41 L59,52 L61,61 Q28,75 28,87 L28,88 L29,88 Q33,88 44,79 L55,77 L60,77 Q69,79 76,95 Q91,128 91,134 L91,144 L92,149 L94,149 Q99,148 103,134 Q103,129 96,110 L96,109 L100,105 L105,105 L112,111 L114,111 L118,107 L118,105 Q107,90 104,70 L104,67 L107,64 L116,64 Q129,65 146,79 Q155,79 155,85 L155,87 L151,96 Q176,125 180,134 L180,140 Q180,142 177,142 Q154,142 138,132 L137,132 L134,135 L134,137 Q134,145 180,153 M92,102 L90,95 L90,94 L93,94 L97,98 L97,102 M127,50 L127,49 Q152,20 163,20 L166,20 L169,23 L169,28 L168,32 Q172,46 172,67 Q170,76 168,76 L166,76 L147,61 Q140,61 127,50 M71,61 L71,59 Q71,54 75,52 L77,52 Q83,52 89,70 Q89,72 86,72 Q73,64 71,61 M90,36 L93,34 L94,34 Q96,34 96,37 L94,44 L93,44 Q90,43 90,36"/> 
            <glyph glyph-name="应" unicode="&#x5E94;" horiz-adv-x="205" d=" M129,166 Q135,166 150,145 L151,144 L151,143 Q151,136 124,126 Q123,122 103,117 L102,116 Q88,112 88,104 L88,102 L90,100 Q96,100 155,128 L171,133 Q174,133 181,123 Q181,119 145,111 Q141,108 135,108 Q135,105 120,94 Q107,81 104,68 Q100,64 84,28 Q67,-6 53,-16 Q48,-16 45,-11 Q45,-4 59,9 Q82,47 98,84 L98,85 L95,88 L86,88 Q77,88 74,97 Q80,113 94,120 Q108,129 126,136 Q135,142 135,147 Q135,152 126,163 L126,164 M178,91 Q186,83 186,77 Q183,59 137,20 Q132,18 132,13 L132,11 L135,11 Q153,11 165,14 L171,13 L172,13 L173,14 L174,13 L183,13 Q205,11 205,0 L204,-3 Q189,4 182,4 L177,4 L173,3 L172,4 L171,4 L120,-4 Q120,-6 107,-7 L107,-8 Q101,-8 97,-1 L97,1 Q97,9 114,14 Q127,23 129,27 L129,29 Q110,43 110,57 Q108,57 108,63 L109,64 L111,64 L121,53 Q133,53 133,40 L131,34 L132,33 L133,33 Q145,36 145,44 Q132,55 132,66 L133,67 L136,67 Q140,64 143,64 Q149,70 154,70 L156,67 L152,56 L153,53 L156,53 Q171,67 176,91"/> 
            <glyph glyph-name="式" unicode="&#x5F0F;" horiz-adv-x="206" d=" M90,162 L93,162 Q107,148 119,127 L124,126 L145,133 L149,133 L156,125 L156,123 Q156,117 127,113 L126,112 L126,110 Q126,92 148,54 Q148,32 183,13 L184,12 L186,12 Q190,14 190,17 L189,23 L190,28 Q187,34 187,42 L187,44 L189,46 Q195,22 206,-5 Q204,-10 201,-10 Q171,0 145,31 L121,90 Q119,90 115,106 L110,107 L85,96 L69,90 L66,90 Q50,90 44,105 Q46,109 47,109 Q55,102 60,102 Q96,108 109,121 L110,125 Q102,145 88,159 L88,160 M160,147 Q183,141 192,131 L192,129 Q189,123 184,122 Q158,129 158,142 L158,144 M109,136 L109,134 L110,134 L110,136 M93,80 Q102,74 102,70 L96,52 L97,51 L100,51 L114,67 L116,67 L116,64 Q111,50 101,37 Q82,14 76,14 Q67,14 65,27 L85,61 L85,64 L84,64 Q65,57 60,57 L57,61 Q57,67 93,80 M188,53 L189,48 L187,46 L185,52 L186,53"/> 
            <glyph glyph-name="心" unicode="&#x5FC3;" horiz-adv-x="198" d=" M166,127 Q198,117 198,106 L198,105 L192,99 Q188,99 174,117 L169,120 L168,120 Q135,120 128,97 L123,96 Q115,96 112,112 L113,113 L114,113 L120,108 L121,108 Q124,108 140,121 Q158,127 166,127 M138,89 Q142,83 167,66 Q176,57 190,34 Q190,28 172,28 Q168,25 162,25 L156,25 Q111,33 111,43 Q101,54 77,70 L76,71 L76,74 L77,74 Q106,65 116,49 Q131,38 160,38 Q173,40 173,44 Q173,60 144,78 Q136,84 136,88 L137,89 M59,72 Q64,70 64,68 L64,61 L66,53 L66,45 Q66,39 60,36 L59,36 L52,44 L53,45 L52,57 L55,69 L55,71"/> 
            <glyph glyph-name="所" unicode="&#x6240;" horiz-adv-x="204" d=" M115,176 Q120,174 120,172 L120,171 Q114,161 91,152 Q91,143 64,142 L61,146 L61,147 Q61,160 83,160 Q106,176 115,176 M143,173 Q174,166 179,156 L181,153 Q181,149 174,146 Q162,148 152,162 L141,170 L141,172 L143,172 M62,138 Q64,138 68,120 L71,119 L90,123 Q101,123 110,110 L109,96 L110,95 L102,71 Q98,68 94,68 L94,67 L67,74 L64,71 L64,57 L57,28 L58,20 Q57,9 54,9 L52,9 Q43,16 43,21 Q47,27 50,50 L51,53 L50,58 Q53,58 59,119 L59,135 M131,126 L132,126 Q133,120 134,120 L131,101 L133,98 Q162,118 181,121 Q181,122 194,124 Q201,121 204,117 L204,116 Q204,112 184,111 L175,109 Q172,104 172,95 L176,72 L175,71 L175,70 L170,14 L171,13 L171,12 Q162,-23 156,-26 L155,-26 L151,-22 L154,-8 L154,-1 Q161,9 161,16 L160,19 L163,37 L162,43 L163,74 L163,100 L159,104 Q146,101 129,78 L129,69 L127,63 L128,60 L123,32 L120,31 Q114,31 113,43 L115,57 L114,57 Q118,69 126,115 L127,116 Q129,126 131,126 M65,104 Q65,83 69,83 Q75,83 97,105 L97,108 Q97,113 92,115 L80,115 Q65,111 65,104 M87,81 L89,79 L92,79 Q97,81 97,87 L97,90 Q89,90 87,81"/> 
            <glyph glyph-name="插" unicode="&#x63D2;" horiz-adv-x="213" d=" M83,168 L85,168 Q99,168 102,143 L102,138 L100,114 Q100,109 107,98 Q107,92 95,84 L95,80 L97,78 L104,79 L105,76 L94,64 L91,58 L91,56 Q91,54 95,54 Q95,36 119,16 Q121,11 126,8 L129,8 Q134,14 145,14 L147,18 Q147,21 130,27 Q118,36 118,38 L118,39 Q118,41 121,41 L136,37 Q148,41 148,49 L151,67 L151,70 L149,72 L146,72 Q124,48 114,48 Q107,50 104,55 L104,57 L115,57 Q139,75 140,85 L140,86 L139,86 L124,85 Q120,86 118,90 Q118,93 138,98 Q154,107 154,113 L153,127 L158,135 Q158,139 146,143 L146,147 Q146,150 161,153 Q171,148 171,147 L171,141 Q171,138 161,138 L159,135 L166,119 L167,119 L175,120 Q189,115 189,110 Q163,103 163,95 L162,89 Q164,80 166,80 L169,80 Q183,88 188,88 L190,88 Q205,88 213,65 Q213,61 192,15 Q188,6 187,-5 Q185,-5 183,-16 L180,-17 Q174,-17 166,2 L163,2 Q160,2 156,-1 L155,-1 L145,2 Q132,0 132,-4 Q132,-10 124,-11 Q110,3 108,16 Q106,16 89,41 Q85,39 85,34 L85,22 Q85,4 96,-9 L96,-11 Q96,-14 92,-14 Q66,4 55,4 L54,4 L44,0 Q36,0 36,8 Q63,36 81,62 L82,76 L81,77 L79,77 Q75,77 65,68 L63,68 L59,72 L59,74 Q67,82 87,97 L91,128 L91,138 Q91,161 82,161 L80,164 L80,165 M165,55 Q170,51 184,37 L184,36 Q184,33 179,32 Q169,36 169,39 Q160,39 160,19 Q160,14 175,9 L176,9 Q184,18 191,42 Q200,54 200,63 L200,70 Q198,80 190,80 Q165,74 165,60 M60,16 L60,13 Q60,9 71,8 L75,8 L76,11 L74,33 Q68,33 60,16"/> 
            <glyph glyph-name="显" unicode="&#x663E;" horiz-adv-x="201" d=" M147,166 Q174,156 174,146 Q174,137 152,111 L151,108 L155,98 L154,97 L154,61 L156,59 L158,59 Q168,67 168,72 L163,75 L163,78 L174,82 Q178,82 184,74 L184,73 Q184,63 155,43 L154,39 L154,32 Q154,23 180,23 Q200,18 200,11 L201,10 Q200,6 197,6 Q189,11 149,15 Q125,10 115,6 L111,7 Q89,0 68,-12 L54,-14 L48,-8 Q48,-5 73,2 Q78,7 110,17 L112,20 L112,24 Q112,31 107,34 L100,33 Q89,33 85,47 Q86,62 89,62 Q93,62 97,46 L102,45 L104,45 Q111,45 115,71 Q122,89 122,98 Q107,98 98,139 L98,140 L99,145 L107,144 Q131,166 147,166 M113,131 Q118,113 129,113 L132,113 Q135,113 137,131 L130,142 L130,144 L131,144 Q134,144 151,133 L152,133 Q161,140 161,147 Q161,152 147,157 L142,157 Q131,151 127,146 Q117,146 113,131 M125,66 L128,56 Q124,50 124,47 L125,40 L124,27 L124,25 Q124,22 128,22 Q138,22 138,26 L138,30 Q138,31 130,36 L129,37 L129,38 Q142,44 142,68 L144,83 L144,93 L141,96 Q131,90 126,71"/> 
            <glyph glyph-name="更" unicode="&#x66F4;" horiz-adv-x="190" d=" M113,165 L114,164 L120,164 L124,165 Q129,164 133,158 Q134,156 145,156 L153,148 L153,147 Q152,144 146,142 L143,143 L136,142 L124,146 L124,145 L129,125 L130,125 Q145,126 148,128 Q178,126 178,113 Q178,109 168,97 L155,80 Q155,75 147,72 Q145,67 140,67 L137,68 Q133,68 131,36 Q129,36 129,31 L129,30 Q129,27 146,22 L167,15 L173,15 L185,5 L185,3 Q190,1 190,-4 Q190,-12 185,-14 L184,-14 Q177,-7 168,-7 Q165,1 156,1 Q147,10 126,16 L124,16 L110,6 L107,6 L101,10 L94,9 L89,10 L89,12 Q91,18 105,18 Q111,22 111,27 L111,29 Q109,34 60,58 L59,59 L59,60 Q59,62 64,63 Q98,51 115,39 L118,39 Q122,40 122,46 L121,49 L122,55 L122,60 L119,63 Q115,63 106,54 L105,54 Q94,59 94,73 Q91,73 89,85 L80,93 L79,120 Q79,125 87,132 L89,132 L89,130 L90,130 L87,113 L87,111 Q87,103 93,103 Q106,115 117,120 L118,121 L118,139 L120,150 Q119,153 111,161 L111,164 L113,164 M130,111 L130,109 Q141,99 149,99 L152,99 Q162,109 162,114 L160,116 L156,116 L142,117 Q131,113 130,111 M98,89 L107,75 L111,75 Q121,79 121,86 L121,91 L118,94 L117,94 Q98,92 98,89"/> 
            <glyph glyph-name="样" unicode="&#x6837;" horiz-adv-x="204" d=" M77,175 Q88,175 96,158 L95,133 L96,132 L100,132 Q109,139 119,140 Q119,145 123,147 Q128,137 133,135 L135,135 Q154,135 166,169 L165,174 L168,175 Q178,172 178,168 Q178,160 169,150 Q169,146 160,138 Q150,129 150,125 L153,123 Q174,137 180,137 L189,132 L189,129 Q174,117 154,109 L153,104 L153,101 Q153,94 163,90 Q166,86 166,82 Q166,78 158,76 L156,61 L160,59 Q182,63 182,68 Q183,72 185,72 L189,72 L204,62 L204,60 Q204,53 181,53 Q173,47 158,44 L156,36 L155,12 L156,12 L155,9 L156,0 L155,-13 Q155,-22 157,-22 L154,-25 L154,-26 Q144,-20 144,-4 L144,38 Q144,41 140,41 L128,39 Q117,39 111,47 L111,48 Q112,54 114,54 L116,54 L122,50 Q145,51 145,55 L145,65 Q145,85 134,92 Q134,95 132,95 L130,95 L111,89 Q106,91 106,93 L106,97 Q127,115 127,124 Q124,129 121,129 Q112,128 91,109 Q87,100 87,95 L87,92 Q87,74 96,74 L98,74 Q100,74 100,78 L101,79 L102,79 Q106,77 106,72 L106,66 Q106,63 97,61 L95,61 Q91,64 88,64 Q84,63 84,58 L84,57 Q84,47 86,47 Q84,43 83,29 L89,-1 Q87,-5 85,-6 L84,-6 Q74,2 72,9 L73,16 L73,18 L72,30 L73,45 L73,67 L71,69 L70,69 Q67,69 57,44 L55,44 L55,43 Q48,46 48,53 L66,90 L66,94 Q66,96 63,96 L49,92 L45,96 L45,100 Q45,103 61,106 Q81,119 81,122 Q81,130 85,145 Q85,167 79,167 L72,168 Q72,174 77,175 M135,98 L135,97 L137,95 L140,95 L142,97 L142,98 L140,100 L137,100"/> 
            <glyph glyph-name="案" unicode="&#x6848;" horiz-adv-x="204" d=" M117,182 L119,182 Q132,171 140,156 L144,156 Q163,156 170,143 Q170,136 148,123 L147,122 L147,117 L149,115 L177,120 Q183,118 188,113 L188,110 Q188,106 165,102 L152,104 L150,104 Q143,104 137,80 Q138,76 141,76 L147,77 Q149,77 156,68 L157,67 L158,67 Q172,68 192,75 L204,66 Q204,58 161,53 L141,41 L139,26 L139,23 Q139,18 143,17 L166,21 L175,20 L182,20 L189,22 L189,21 Q189,17 194,17 Q200,10 200,0 Q198,-4 196,-5 L194,-5 Q178,12 162,12 Q139,11 138,6 L138,-1 L139,-2 L136,-8 L137,-29 L138,-29 L135,-33 L134,-33 Q129,-32 115,-5 L112,-5 Q109,-5 96,-14 Q87,-9 83,2 Q83,12 92,21 L93,21 L96,18 L94,5 L94,3 Q94,1 99,0 Q118,12 122,12 Q122,14 125,14 L126,17 L125,28 L126,32 Q125,36 123,36 L121,36 L82,25 L81,26 L80,26 L61,25 Q45,28 45,34 Q45,39 50,42 L51,42 Q51,35 58,35 L60,35 Q81,35 115,47 Q120,52 126,52 L126,56 L121,56 Q108,56 105,63 Q105,66 116,70 L118,74 L118,76 Q113,87 111,87 L108,87 Q99,80 77,77 Q57,79 57,89 L60,92 Q66,88 79,87 Q117,94 117,115 L117,132 L114,133 Q103,130 85,108 L83,108 Q76,108 75,130 Q76,151 79,151 L80,151 Q83,151 84,136 L84,131 L86,129 L87,129 Q90,129 103,139 Q114,146 123,149 L123,154 L121,157 L122,164 L117,180 M127,136 L127,133 Q128,127 130,127 L131,127 Q142,129 152,141 L152,144 L151,145 L151,146 Q127,145 127,136 M127,109 L128,108 L130,108 L133,111 L131,114 Q127,113 127,109 M134,60 Q136,55 140,55 L142,58 L142,59 L139,62 L136,62 M119,0 L121,-2 L122,-2 L124,0 L122,2 L121,2"/> 
            <glyph glyph-name="灵" unicode="&#x7075;" horiz-adv-x="196" d=" M130,160 L132,160 Q138,160 142,153 L142,150 Q142,139 127,103 Q127,95 123,95 L117,97 Q110,93 110,78 L110,74 Q110,66 115,64 L121,64 Q132,70 132,74 L127,79 L127,80 Q138,85 146,85 Q151,79 151,76 L151,75 Q133,52 119,52 Q113,58 109,58 L108,58 L108,56 Q108,49 128,34 Q141,12 172,6 L177,6 L178,7 L196,-4 L196,-6 Q196,-9 191,-11 Q180,-7 171,-7 L163,-7 L147,-1 L139,-1 Q137,-1 134,9 Q120,25 107,44 L105,44 Q101,44 96,19 Q85,-1 76,-2 L75,-3 L74,-3 Q58,-1 58,5 L67,10 L71,9 Q80,9 91,42 L92,50 L90,53 Q84,51 75,34 L71,32 Q54,36 54,54 Q56,58 57,58 L59,58 Q61,58 65,47 L66,46 L69,46 Q75,46 83,59 L86,60 L92,55 L93,55 Q96,55 97,65 L96,66 L96,67 L100,77 L100,89 L83,98 L83,102 L85,102 L85,103 L90,102 Q104,102 109,110 L109,115 Q85,117 85,124 L85,127 L88,130 L101,129 L109,130 L118,123 L121,123 Q125,123 129,146 L128,146 L108,143 Q85,146 85,158 L86,158 Q91,158 96,155 Q119,157 130,160 M113,116 L113,114 L115,114 L117,116 L115,118"/> 
            <glyph glyph-name="炫" unicode="&#x70AB;" horiz-adv-x="204" d=" M153,173 Q163,165 163,156 Q160,151 160,143 L163,143 L192,154 L196,154 Q202,150 202,147 Q202,142 180,126 Q152,88 152,81 L154,79 L158,79 Q167,85 179,91 Q183,91 187,79 L187,78 L165,47 L165,44 L168,41 L172,41 Q179,41 179,43 Q204,43 204,28 Q204,21 165,-8 Q161,-14 145,-22 L142,-21 L142,-19 Q143,-15 163,2 L180,16 Q180,18 186,23 L187,27 L184,29 L181,29 Q167,27 155,19 L150,18 L149,18 Q146,18 145,28 Q145,34 162,62 L162,64 L159,64 Q156,64 142,55 L139,54 Q129,56 129,64 Q129,73 145,90 Q145,92 164,119 L170,131 L169,132 L166,132 L150,118 Q137,118 134,110 Q129,110 117,95 L110,95 Q99,95 93,70 Q90,70 88,51 Q88,47 104,45 L106,45 L111,46 L118,30 Q116,24 110,24 L109,24 Q91,44 87,44 Q84,43 75,24 Q62,8 52,8 L49,8 L45,12 L45,14 Q75,34 75,49 Q78,49 80,68 L79,69 L77,69 L71,68 Q68,68 65,76 Q75,104 75,115 L75,118 L77,118 Q81,116 81,111 L81,104 L79,96 L79,89 L84,89 Q89,89 96,147 L99,150 L100,150 L103,148 L102,131 L102,118 L103,117 L113,112 L114,112 Q121,112 140,127 L139,132 Q152,150 152,162 L150,171 M99,107 L99,105 L101,103 L102,103 L105,106 L105,108 L103,110 L102,110"/> 
            <glyph glyph-name="玩" unicode="&#x73A9;" horiz-adv-x="207" d=" M134,152 Q148,148 158,136 L161,132 Q161,123 144,118 L143,118 L139,122 L141,134 L131,149 L131,150 Q131,152 134,152 M97,134 Q104,134 107,128 L107,126 Q90,114 90,101 Q86,101 85,73 L86,60 Q81,49 81,35 L84,35 L98,55 L100,55 L102,53 L102,51 Q95,41 91,24 Q89,24 78,3 L69,-1 Q60,-1 54,16 L54,19 L62,35 L62,38 Q40,58 40,65 Q40,79 72,79 Q79,96 79,102 L79,104 Q79,106 76,106 Q63,105 63,104 Q49,110 49,120 L49,121 L52,121 L58,116 L62,116 Q75,116 87,127 M164,114 L165,114 Q167,113 172,105 Q172,102 160,96 Q160,93 148,85 Q134,63 134,59 Q134,56 149,39 Q149,27 176,16 L184,15 L190,15 Q200,17 200,28 L200,34 L198,37 L198,38 L200,40 Q202,40 207,29 Q207,1 202,1 L190,1 L183,2 L183,1 Q154,13 148,27 Q148,30 132,51 L131,51 Q124,42 121,21 Q116,15 116,9 Q112,0 106,0 Q99,1 99,9 Q99,12 113,36 L128,71 Q130,79 131,79 L130,82 L129,82 L116,78 Q102,80 102,86 L105,90 L111,89 Q121,89 158,111 Q161,111 164,114 M52,59 Q52,57 64,48 L66,48 Q69,48 71,59 L71,63 Q71,68 67,70 L66,70 Q52,65 52,59 M70,21 L70,19 L72,19 L72,21"/> 
            <glyph glyph-name="用" unicode="&#x7528;" horiz-adv-x="187" d=" M158,159 Q186,154 186,129 L187,128 L187,127 L185,110 L185,104 Q181,104 178,58 L178,50 L183,19 Q180,13 176,13 Q161,18 161,26 Q170,29 170,36 L168,41 L169,48 L167,63 L168,69 L168,72 L167,80 Q175,120 175,135 Q175,143 165,150 L153,149 L147,150 Q130,144 130,139 Q133,134 133,126 L133,116 Q133,112 139,105 L139,104 Q130,79 130,68 L131,67 L132,67 Q137,67 145,76 L146,76 Q151,73 151,67 Q151,63 141,60 Q128,52 128,39 L125,11 L126,11 L124,2 L125,-6 L124,-7 L122,-7 L116,-5 L117,2 L117,14 L116,19 L117,25 L117,44 Q105,51 105,57 Q105,60 120,85 L122,102 L121,103 L117,103 Q111,103 99,89 Q96,89 96,93 L95,93 Q105,109 113,109 Q123,114 123,117 Q122,136 118,136 Q106,136 86,114 L86,90 Q83,45 76,42 Q74,25 71,25 L70,25 Q65,26 62,38 Q71,57 75,86 L76,87 L76,88 L75,95 L76,103 L75,104 L74,104 L69,103 L69,104 Q75,112 75,115 L74,120 Q83,121 96,134 Q136,159 158,159"/> 
            <glyph glyph-name="的" unicode="&#x7684;" horiz-adv-x="194" d=" M148,164 L149,164 L152,162 L147,129 L149,120 L148,112 Q148,105 183,94 Q194,84 194,74 L194,73 L169,29 Q154,1 150,-13 L148,-13 L148,-14 Q141,-14 135,4 L135,8 L137,11 L145,8 L158,33 Q181,66 181,72 L181,79 Q181,87 150,95 Q141,105 141,110 L139,131 Q144,164 148,164 M106,158 Q113,158 119,139 Q119,128 107,113 L107,111 L103,111 L93,110 L92,111 L92,112 Q92,116 104,128 Q108,134 108,139 L108,142 Q108,146 101,154 L101,155 Q101,157 106,158 M117,101 L120,101 Q120,95 110,83 Q115,72 115,68 Q104,36 91,36 L90,36 Q87,36 82,52 L100,80 L98,82 L95,82 Q79,68 79,50 Q77,50 77,43 L77,30 Q77,27 73,27 Q66,27 62,62 Q60,62 54,90 L54,91 L57,91 L67,69 Q69,69 69,64 L70,63 L71,63 Q73,63 80,77 Q89,91 109,91 Q114,100 117,101 M138,72 Q154,64 159,52 L159,51 Q158,48 151,48 L151,47 Q149,47 137,59 Q132,61 132,67 L132,68 Q132,71 138,71 M95,56 L95,54 L97,52 Q103,56 103,62 L101,64 L100,64 Q95,61 95,56"/> 
            <glyph glyph-name="秀" unicode="&#x79C0;" horiz-adv-x="197" d=" M141,174 L142,174 Q148,174 153,167 Q153,165 136,150 Q132,145 132,142 L132,139 L139,126 Q144,126 163,137 Q173,132 173,131 L173,127 L160,120 Q160,117 140,112 L137,108 L137,107 Q137,104 147,103 L154,104 L163,103 L164,104 L169,103 L178,103 L186,95 L186,94 Q186,89 167,88 L149,79 L149,78 Q161,68 161,61 L155,38 Q156,34 161,34 L177,38 Q197,36 197,22 Q197,18 187,4 Q182,3 176,-6 Q162,-15 156,-15 Q149,-15 146,-9 L146,-5 Q151,-5 165,2 Q171,2 182,20 L182,21 L179,24 Q164,23 153,20 Q147,20 144,33 L149,57 L149,61 Q149,66 145,68 L143,68 Q135,68 129,49 L94,-14 Q94,-20 86,-24 Q80,-24 78,-10 L81,-2 L86,-3 L87,-3 Q94,1 112,41 L113,42 L110,45 Q89,28 83,28 L80,30 L81,37 Q71,45 71,49 Q86,58 96,79 L96,81 Q96,83 93,83 Q66,66 58,66 Q52,68 52,70 L52,71 Q52,73 62,75 Q78,84 122,116 Q126,121 126,127 L126,130 L123,133 Q119,132 104,118 L101,118 L101,119 Q101,126 126,152 M134,81 L135,78 L136,78 Q141,78 146,88 L149,91 L147,93 L141,93 Q134,93 134,81 M86,39 Q120,59 120,71 L120,87 L117,87 L91,50 Q88,50 85,39"/> 
            <glyph glyph-name="组" unicode="&#x7EC4;" horiz-adv-x="220" d=" M104,163 Q108,161 108,157 Q87,123 72,107 Q67,104 67,99 L78,88 Q70,67 58,52 L58,49 L60,47 L61,47 L67,48 Q74,48 86,34 L86,32 Q83,-3 76,-7 Q72,-6 65,3 Q65,12 72,30 L72,35 L69,38 L50,32 L48,32 Q42,36 42,41 L64,79 L64,83 L60,83 Q50,83 37,68 L34,68 Q30,69 30,75 L30,79 Q55,98 78,128 Q91,144 101,163 M169,137 Q182,127 182,120 Q182,116 166,84 L159,55 L160,48 L159,29 L160,25 L159,21 Q159,10 171,10 Q213,2 217,-1 L220,-6 L220,-9 Q218,-13 214,-13 Q214,-5 170,1 L167,1 Q163,1 155,-6 L153,-6 Q148,0 146,0 Q138,0 104,-13 Q96,-13 93,3 Q110,17 110,23 Q115,60 115,87 L114,102 L116,104 L123,103 L124,103 Q155,137 169,137 M127,88 Q127,83 153,80 Q156,81 164,106 Q172,117 172,124 Q171,128 166,128 L165,128 Q144,120 137,104 L127,90 M126,72 L126,59 L128,59 Q134,59 142,70 L142,73 Q141,76 134,76 L130,76 M132,49 L132,48 Q132,44 146,42 L150,46 L150,56 L148,58 L145,58 Q132,50 132,49 M122,32 L122,28 Q122,25 126,25 Q131,26 134,32 L134,33 Q133,36 128,36 L126,36 M118,7 L121,6 Q149,8 149,16 L149,17 Q149,22 146,23 Q124,18 119,8 M108,6 L110,4 L111,4 L111,8 L110,8"/> 
            <glyph glyph-name="酷" unicode="&#x9177;" horiz-adv-x="219" d=" M152,166 Q163,155 163,128 L163,117 L162,111 L164,107 L173,110 Q183,106 183,101 Q158,90 158,80 Q157,80 154,68 L157,66 Q165,66 184,73 L196,75 L197,74 L198,74 L207,75 Q210,75 219,68 L219,67 Q210,57 196,53 L195,52 L191,49 Q186,50 186,52 L186,53 L192,60 L192,63 L187,63 Q180,63 139,46 Q125,46 106,31 Q106,-8 92,-8 L91,-9 L90,-9 L64,3 Q60,-7 57,-7 Q42,2 42,15 Q37,15 30,72 L30,81 Q32,90 35,90 L36,90 Q44,23 49,23 L52,23 L52,24 L50,32 L57,44 Q59,47 59,55 Q57,57 52,57 L52,58 Q52,60 61,75 L61,82 L60,92 L61,98 L59,110 L62,110 Q68,110 69,94 L69,88 L72,85 L73,85 Q77,85 80,112 L83,116 L83,121 Q54,123 54,128 L54,130 Q55,133 62,133 L77,133 L85,135 L89,134 L100,137 L101,137 L110,129 L110,128 Q107,122 94,122 L90,122 Q88,122 87,118 L88,111 L87,101 L87,98 L89,96 L90,96 L98,98 L101,98 Q115,98 115,80 Q113,76 111,51 L115,49 Q144,59 144,65 L147,78 L147,84 L145,86 L143,86 L134,85 Q125,85 125,108 Q123,108 121,116 L122,117 L125,117 Q134,110 140,100 L148,100 Q150,100 152,121 L152,123 L151,123 L152,130 L152,149 L149,163 M85,79 Q85,55 96,55 Q100,55 102,81 Q100,85 98,86 Q88,86 85,79 M68,43 Q68,34 83,30 L87,25 Q87,17 79,10 L79,8 L81,6 L82,6 Q94,12 94,15 L95,23 L95,27 Q95,35 78,59 Q76,66 74,66 L73,66 Q70,66 68,43 M62,22 L62,17 Q62,11 68,11 Q74,17 74,21 L74,22 L71,25 L65,25 M132,24 Q134,23 142,5 L145,5 Q149,6 157,20 L164,21 L179,8 L190,8 Q195,8 197,4 L197,1 Q196,-8 188,-8 L187,-8 Q178,-8 163,11 Q157,11 152,-3 Q146,-13 143,-15 L140,-15 Q136,-15 130,7 L131,8 L130,15 L130,22"/> 
            <glyph glyph-name="随" unicode="&#x968F;" horiz-adv-x="204" d=" M161,181 Q165,181 167,171 L167,156 L163,134 L164,133 L169,133 L187,139 L191,139 Q200,137 200,131 L199,128 L191,128 Q151,115 151,110 Q147,101 147,96 Q147,86 160,85 Q167,78 167,74 L167,71 Q167,67 161,60 L161,58 Q163,53 168,53 L169,53 Q173,53 173,72 L172,79 L173,85 L172,91 L173,96 Q173,101 161,101 L160,102 L160,103 Q165,112 171,112 Q181,112 185,84 L184,73 L185,68 L183,43 Q184,31 185,31 Q185,22 179,14 L179,13 L200,4 L204,-7 L204,-8 L200,-13 Q193,-4 174,1 L111,13 L97,14 L96,13 L95,13 L64,17 L62,14 L62,7 L63,1 L61,-11 Q62,-23 64,-26 L61,-29 L61,-30 Q46,-20 46,-16 L55,64 L55,67 L45,85 L45,93 L49,97 Q62,97 62,89 Q66,85 70,71 L74,71 Q80,71 85,78 L85,82 Q71,93 71,103 L83,124 L82,124 L81,125 L80,125 Q77,125 60,115 L56,114 Q51,115 51,118 L51,120 Q53,124 76,132 Q76,135 92,140 Q98,140 100,124 L114,121 L115,122 L120,121 Q148,121 148,135 Q157,157 157,179 M93,118 Q83,108 83,100 Q95,86 98,86 Q103,91 103,98 L99,106 L101,112 Q100,118 93,118 M111,106 L116,87 L117,87 Q123,87 135,109 L134,110 L114,110 Q112,110 111,106 M100,82 Q97,77 97,64 Q97,57 114,40 Q119,25 124,25 L129,26 L129,39 L128,40 L135,70 L135,82 L133,82 L120,76 Q112,79 100,82 M145,61 L145,57 L147,57 Q151,59 157,70 L157,73 Q156,76 151,76 L150,76 Q145,76 145,61 M65,38 L65,32 Q65,28 78,27 L104,28 L106,31 L106,34 L90,61 L89,62 L88,62 L80,61 L74,62 Q68,62 65,38 M143,46 L145,32 Q145,24 139,24 Q138,27 133,27 L130,27 Q130,20 143,20 L154,16 L157,16 L162,17 L162,26 Q162,28 170,31 L171,34 Q171,40 157,43 Q148,52 148,55 L146,55 Q143,55 143,46"/> 
        </font>
</defs>
</svg>
