<?xml version="1.0" standalone="no"?>
<!DOCTYPE svg PUBLIC "-//W3C//DTD SVG 1.1//EN" "http://www.w3.org/Graphics/SVG/1.1/DTD/svg11.dtd" >
<svg xmlns="http://www.w3.org/2000/svg">
    <defs>
        <font id="">
            <font-face font-family=""
                       units-per-em="1024"
                       ascent="880"
                       descent="-144"
                       bbox="-95 -316 1024 880"
                    />
            <missing-glyph horiz-adv-x="0" />
            
            <glyph glyph-name="!" unicode="&#x21;" horiz-adv-x="372" d=" M298,621 Q307,674 339.5,665.5 Q372,657 337,554 Q302,451 265,353 Q228,255 212.5,264 Q197,273 222.5,382.5 Q248,492 298,621 M190,211 Q240,203 244,145.5 Q248,88 199,63 Q157,79 149,112 Q141,145 149,170 Q157,203 190,211"/> 
            <glyph glyph-name="A" unicode="&#x41;" horiz-adv-x="489" d=" M245,634 Q254,634 272.5,601 Q291,568 322,506 Q353,444 378,370 Q410,382 439,371.5 Q468,361 478.5,334.5 Q489,308 466.5,314 Q444,320 398,316 Q435,194 445.5,154 Q456,114 445.5,85 Q435,56 400,52 Q365,48 322,114 Q279,180 225,233 Q180,238 138,254 Q105,155 100.5,97 Q96,39 84,18.5 Q72,-2 47.5,-6 Q23,-10 51.5,151 Q80,312 138,448 Q196,584 201,601.5 Q206,619 245,634 M237,527 Q196,411 155,291 Q241,329 320,353 Q292,464 237,527 M344,300 Q279,279 245,262 L245,262 Q279,213 313.5,177.5 Q348,142 386,122 Q374,217 344,300"/> 
            <glyph glyph-name="C" unicode="&#x43;" horiz-adv-x="527" d=" M300,379 Q350,362 337.5,345.5 Q325,329 300,296 Q275,263 258.5,254.5 Q242,246 242,258.5 Q242,271 250.5,287.5 Q259,304 275,321 Q226,321 180.5,292 Q135,263 93.5,205 Q52,147 77,81 Q135,49 201,65 Q242,81 320.5,131 Q399,181 442.5,218 Q486,255 506.5,254.5 Q527,254 471.5,188.5 Q416,123 283.5,40 Q151,-43 28,48 Q-14,139 40,217.5 Q94,296 152,337 Q210,378 300,379"/> 
            <glyph glyph-name="F" unicode="&#x46;" horiz-adv-x="517" d=" M418,765 Q442,773 456.5,748.5 Q471,724 449,714.5 Q427,705 373,682 Q319,659 307,478 Q386,538 428.5,550.5 Q471,563 485.5,552.5 Q500,542 508.5,530 Q517,518 512.5,513.5 Q508,509 442,491 Q376,473 294,381 Q264,262 250,151 Q236,40 244,14.5 Q252,-11 240,-23.5 Q228,-36 198.5,-11 Q169,14 182,121.5 Q195,229 219,328 Q195,295 178.5,295 Q162,295 157.5,324 Q153,353 182,386 Q211,419 244,443 Q252,501 256,590 Q145,509 103.5,476 Q62,443 45.5,439 Q29,435 17,443.5 Q5,452 0.5,460 Q-4,468 21,493 Q46,518 79,534.5 Q112,551 182,613 Q252,675 418,765"/> 
            <glyph glyph-name="I" unicode="&#x49;" horiz-adv-x="385" d=" M294,459 Q327,468 335,447 Q343,426 335,389 Q327,352 286,286 Q253,187 228,80 Q298,112 341.5,112.5 Q385,113 356,88 Q327,63 253.5,30 Q180,-3 142,1 Q104,5 104,26 Q104,47 162,101 Q187,191 207.5,255 Q228,319 244,360 Q195,336 170,344 Q145,352 141,364.5 Q137,377 141,381 Q145,385 182.5,405.5 Q220,426 294,459"/> 
            <glyph glyph-name="J" unicode="&#x4A;" horiz-adv-x="525" d=" M452,669 Q488,693 506.5,684.5 Q525,676 522.5,651.5 Q520,627 510,618.5 Q500,610 458.5,585.5 Q417,561 388,523.5 Q359,486 353,463 Q347,440 353,401 Q359,362 359.5,273.5 Q360,185 306,113 Q252,41 190,18 Q128,-5 53.5,1 Q-21,7 -8,21.5 Q5,36 104,46.5 Q203,57 252,135.5 Q301,214 301.5,276 Q302,338 293.5,379 Q285,420 281,457.5 Q277,495 326,536 Q252,486 216.5,474 Q181,462 168,478 Q155,494 183,525.5 Q211,557 306,600 Q401,643 452,669"/> 
            <glyph glyph-name="Q" unicode="&#x51;" horiz-adv-x="490" d=" M267,547 Q341,547 370,477 Q399,407 350,253 Q391,208 432,163 Q473,118 481.5,82.5 Q490,47 459,60 Q428,73 389,114 Q350,155 308,192 Q267,118 233.5,73.5 Q200,29 157.5,9 Q115,-11 77.5,18 Q40,47 29.5,115.5 Q19,184 73,318.5 Q127,453 182,498.5 Q237,544 267,547 M284,481 Q280,456 279.5,415 Q279,374 308,304 Q349,431 284,481 M217,447 Q124,320 108.5,239.5 Q93,159 93,138.5 Q93,118 97.5,97 Q102,76 110,72 Q118,68 130.5,68 Q143,68 165.5,84.5 Q188,101 221.5,150.5 Q255,200 275,241 Q218,337 217,447"/> 
            <glyph glyph-name="S" unicode="&#x53;" horiz-adv-x="430" d=" M405,626 Q422,621 426,590.5 Q430,560 422,551.5 Q414,543 391,539 Q368,535 337,510 Q306,485 302,448 Q298,411 360,365.5 Q422,320 426,283 Q430,246 376.5,159.5 Q323,73 228,39.5 Q133,6 104,-2 Q75,-10 75,-2 Q75,6 166,51.5 Q257,97 316.5,188 Q376,279 302,332.5 Q228,386 226,438 Q224,490 240.5,512.5 Q257,535 296,566 Q335,597 358,607 Q381,617 405,626"/> 
            <glyph glyph-name="U" unicode="&#x55;" horiz-adv-x="494" d=" M337,508 Q362,517 374.5,508.5 Q387,500 387,479.5 Q387,459 374.5,380.5 Q362,302 385,211 Q408,120 426,105.5 Q444,91 465,76.5 Q486,62 490,50 Q494,38 440.5,31.5 Q387,25 349.5,114 Q312,203 312,286 Q192,63 153,29.5 Q114,-4 81,0.5 Q48,5 33,87.5 Q18,170 30.5,252.5 Q43,335 41.5,349 Q40,363 56.5,365.5 Q73,368 89.5,359.5 Q106,351 97.5,285 Q89,219 89.5,121 Q90,23 151.5,121 Q213,219 254.5,293.5 Q296,368 300,405 Q304,442 337,508"/> 
            <glyph glyph-name="a" unicode="&#x61;" horiz-adv-x="434" d=" M252,396 Q310,396 347,350.5 Q384,305 360,239 Q343,206 326.5,165 Q310,124 314,91 Q318,58 351,62 Q384,66 409,66 Q434,66 417.5,33 Q401,0 330.5,4 Q260,8 260,82 Q211,33 145,6.5 Q79,-20 81,126 Q83,272 252,396 M236,305 Q194,272 173.5,231 Q153,190 145,148.5 Q137,107 158,74 Q207,108 252,157 L252,173 Q227,174 219,190 Q211,206 211,222.5 Q211,239 223.5,260 Q236,281 236,305"/> 
            <glyph glyph-name="c" unicode="&#x63;" horiz-adv-x="452" d=" M316,340 Q349,340 357,316 Q357,316 353,303.5 Q349,291 336.5,287 Q324,283 301,286 Q278,289 239,269.5 Q200,250 159,190 Q118,130 147,95 Q176,60 250,64 Q324,68 373.5,117.5 Q423,167 437.5,177.5 Q452,188 450,161 Q448,134 394,78.5 Q340,23 258,8 Q176,-7 110,51 Q60,126 105.5,196 Q151,266 198.5,305 Q246,344 316,340"/> 
            <glyph glyph-name="e" unicode="&#x65;" horiz-adv-x="451" d=" M252,395 Q269,403 293.5,390.5 Q318,378 318,345 Q327,266 252.5,204.5 Q178,143 153,126 Q133,102 161,81 Q228,48 294,118 Q360,188 405.5,204.5 Q451,221 422,171.5 Q393,122 291.5,43.5 Q190,-35 103,40 Q70,106 66,143 Q62,180 88.5,224.5 Q115,269 161,313.5 Q207,358 252,395 M244,304 Q211,271 156,198 Q211,254 227.5,271 Q244,288 244,304"/> 
            <glyph glyph-name="i" unicode="&#x69;" horiz-adv-x="294" d=" M236,606 Q285,598 289.5,573 Q294,548 285.5,527.5 Q277,507 260.5,511 Q244,515 227.5,527.5 Q211,540 211,556.5 Q211,573 215,581.5 Q219,590 236,606 M223,285 Q226,304 239,306.5 Q252,309 264.5,292.5 Q277,276 279,218 Q281,160 270.5,90 Q260,20 256,7.5 Q252,-5 235.5,-5 Q219,-5 219,73.5 Q219,152 223,285"/> 
            <glyph glyph-name="m" unicode="&#x6D;" horiz-adv-x="490" d=" M382,384 Q432,360 428,306 Q424,252 424,227.5 Q424,203 444.5,219.5 Q465,236 477.5,244 Q490,252 481.5,227.5 Q473,203 444,161.5 Q415,120 398.5,132.5 Q382,145 370,165.5 Q358,186 366,231.5 Q374,277 372,301.5 Q370,326 347.5,301.5 Q325,277 279.5,219 Q234,161 213,173.5 Q192,186 192,207 Q192,228 196.5,244.5 Q201,261 155.5,221.5 Q110,182 93.5,116 Q77,50 68.5,27.5 Q60,5 48,-5.5 Q36,-16 21.5,-16 Q7,-16 11,48 Q15,112 42,161.5 Q69,211 77,244 Q85,277 85,306 Q85,335 85,347.5 Q85,360 89,368 Q93,376 101.5,376 Q110,376 130.5,363.5 Q151,351 155,339 Q159,327 180,347.5 Q201,368 234,355.5 Q267,343 267,318.5 Q267,294 308.5,340 Q350,386 382,384"/> 
            <glyph glyph-name="n" unicode="&#x6E;" horiz-adv-x="483" d=" M211,309 Q277,309 293.5,251.5 Q310,194 302,91 Q384,144 433.5,189 Q483,234 466.5,193.5 Q450,153 400.5,103 Q351,53 304,34.5 Q257,16 246,52.5 Q235,89 239,158 Q243,227 228.5,224.5 Q214,222 192,204 Q170,186 137,115.5 Q104,45 91,20 Q78,-5 62,3.5 Q46,12 38,28.5 Q30,45 79,142 Q128,239 144.5,262 Q161,285 211,309"/> 
            <glyph glyph-name="o" unicode="&#x6F;" horiz-adv-x="405" d=" M282,386 Q405,341 354,208.5 Q303,76 257,29 Q211,-18 170,10.5 Q129,39 118.5,130 Q108,221 145.5,258 Q183,295 208,270 Q224,337 282,386 M298,337 Q249,279 249,242 Q249,205 249,194.5 Q249,184 232.5,186 Q216,188 211.5,192 Q207,196 207,250 Q174,196 178.5,142.5 Q183,89 207,64 Q257,122 294,196.5 Q331,271 298,337"/> 
            <glyph glyph-name="p" unicode="&#x70;" horiz-adv-x="369" d=" M196,531 Q202,547 219.5,543 Q237,539 241,526.5 Q245,514 253.5,518 Q262,522 282.5,520 Q303,518 330,502 Q357,486 363,440 Q369,394 344.5,365.5 Q320,337 217,255 Q199,167 197.5,65 Q196,-37 192,-59.5 Q188,-82 173.5,-86.5 Q159,-91 144.5,-64 Q130,-37 138,69.5 Q146,176 143,233 Q112,230 117,253.5 Q122,277 151,275 Q163,415 196,531 M258,448 Q221,407 221,321 Q295,390 312,432 Q287,456 258,448"/> 
            <glyph glyph-name="r" unicode="&#x72;" horiz-adv-x="419" d=" M279,531 Q302,561 337.5,500.5 Q373,440 385.5,409 Q398,378 408.5,343 Q419,308 400.5,306 Q382,304 373.5,308 Q365,312 342.5,341 Q320,370 309.5,409 Q299,448 264,370 Q229,292 218.5,186.5 Q208,81 204,40 Q200,-1 179.5,-1 Q159,-1 150.5,15.5 Q142,32 138,60.5 Q134,89 146.5,172 Q159,255 155,300 Q151,345 130,386.5 Q109,428 113.5,461 Q118,494 146.5,486 Q175,478 187.5,453 Q200,428 204,411.5 Q208,395 225,436.5 Q242,478 279,531"/> 
            <glyph glyph-name="s" unicode="&#x73;" horiz-adv-x="376" d=" M310,547 Q331,559 353.5,536.5 Q376,514 357.5,497.5 Q339,481 318.5,466.5 Q298,452 258.5,421 Q219,390 215,369.5 Q211,349 225,322 Q239,295 282.5,248 Q326,201 351,176 Q376,151 368,134.5 Q360,118 335,114 Q310,110 264.5,89 Q219,68 194,43.5 Q169,19 140.5,2.5 Q112,-14 112,-1.5 Q112,11 128.5,35.5 Q145,60 173.5,97.5 Q202,135 237,147 Q272,159 237,192 Q202,225 181.5,254 Q161,283 148.5,328.5 Q136,374 190,436 Q244,498 310,547"/> 
            <glyph glyph-name="t" unicode="&#x74;" horiz-adv-x="488" d=" M315,465 Q372,436 381,411 Q381,362 337.5,333 Q294,304 245,275 Q207,180 257,81 Q287,73 325.5,101.5 Q364,130 389,159 Q414,188 451,200.5 Q488,213 446.5,151 Q405,89 355.5,52 Q306,15 265,11 Q224,7 199,56.5 Q174,106 168.5,151.5 Q163,197 174,246 Q96,197 65,182.5 Q34,168 13.5,190.5 Q-7,213 34,236 Q75,259 183,316 Q191,362 220,407.5 Q249,453 315,465 M306,420 Q265,395 253,341 Q298,365 344,395 Q327,412 306,420"/> 
            <glyph glyph-name="v" unicode="&#x76;" horiz-adv-x="398" d=" M330,424 Q398,570 359.5,388 Q321,206 317,160.5 Q313,115 304.5,65.5 Q296,16 288,7.5 Q280,-1 261.5,-5 Q243,-9 187,69.5 Q131,148 122.5,243 Q114,338 114,354 Q114,370 131,376.5 Q148,383 162,372.5 Q176,362 180.5,315 Q185,268 197.5,208 Q210,148 232.5,121.5 Q255,95 271.5,208 Q288,321 330,424"/> 
            <glyph glyph-name="z" unicode="&#x7A;" horiz-adv-x="389" d=" M258,340 Q273,337 289,330.5 Q305,324 321.5,300.5 Q338,277 326,253.5 Q314,230 209,96 Q267,107 313.5,120 Q360,133 374.5,109.5 Q389,86 379.5,81.5 Q370,77 314,65.5 Q258,54 206,36 Q154,18 136.5,16.5 Q119,15 112,29 Q105,43 138.5,94 Q172,145 274,266 Q239,297 189.5,274.5 Q140,252 132,253.5 Q124,255 114.5,273 Q105,291 143,318 Q181,345 258,340"/> 
            <glyph glyph-name="。" unicode="&#x3002;" horiz-adv-x="347" d=" M246,158 Q279,165 313,151.5 Q347,138 340,92 Q320,25 265,-17.5 Q210,-60 176,-48.5 Q142,-37 139,12 Q112,-28 105.5,-24 Q99,-20 116,42 Q133,104 246,158 M220,92 Q193,82 182,51 Q171,20 187,4.5 Q203,-11 240,24 Q277,59 272,92 Q253,122 220,92"/> 
            <glyph glyph-name="一" unicode="&#x4E00;" horiz-adv-x="780" d=" M642,479 Q662,496 669,494.5 Q676,493 692,490 Q768,477 777,447 Q780,438 772,430 Q764,422 749,422.5 Q734,423 715.5,423 Q697,423 682.5,427.5 Q668,432 645,429 Q610,425 557,408 Q504,391 459,369 L421,352 L367,326 Q323,306 309,300 Q285,294 254,295.5 Q223,297 200,307 Q155,325 125,353 Q114,364 112.5,367 Q111,370 114,374 Q119,379 135,376 Q196,367 224.5,371.5 Q253,376 334,406 Q435,444 492,456 L526,464 Q539,467 580,473 Q621,479 631,479"/> 
            <glyph glyph-name="上" unicode="&#x4E0A;" horiz-adv-x="736" d=" M452,634 Q460,640 462,640 Q469,640 478.5,629.5 Q488,619 493,604 Q503,576 544,533 Q560,516 578,510 Q609,499 606,479 Q606,473 602.5,472 Q599,471 589,470 Q575,469 554.5,476.5 Q534,484 519,493 Q508,501 497,516 Q486,531 487,535 Q491,544 505,533 Q519,523 519,534 Q519,537 505,558 Q491,579 487,583 Q478,590 469,574 Q465,566 456,529 Q447,492 444,468 Q437,419 443.5,349 Q450,279 461,279 Q464,279 475,283 Q511,295 563,297 Q614,299 614,310 Q614,313 611,318 Q608,323 608,324.5 Q608,326 611,327 Q616,329 629.5,321.5 Q643,314 665,311 Q686,307 704,297 Q722,287 727,276 Q736,260 731.5,252.5 Q727,245 711,242 Q698,240 690,235 Q682,230 632,230 Q582,230 548,223 Q516,216 489,205.5 Q462,195 405,166 Q342,135 337.5,134 Q333,133 317,125 Q293,113 255,121 Q218,130 203.5,139.5 Q189,149 171,174 Q157,195 157,210 Q157,237 174,227 Q183,222 207.5,212 Q232,202 255,202 Q278,202 307,213.5 Q336,225 341,228 Q348,231 354,237 Q360,243 359,245 Q358,247 339,247 Q320,247 320,252 Q320,257 336,264 Q350,270 365,282.5 Q380,295 385,306 Q389,314 388,358 Q387,438 407.5,527 Q428,616 452,634"/> 
            <glyph glyph-name="下" unicode="&#x4E0B;" horiz-adv-x="761" d=" M667,658 Q691,661 707,658 Q735,651 745.5,643 Q756,635 758,619 Q761,591 724,580 Q705,574 685,562 Q665,550 646,548 Q622,544 621,552 Q621,555 625,560 Q632,572 620,573 Q613,574 598,573 Q564,571 515.5,552.5 Q467,534 464,522 Q463,514 470.5,493 Q478,472 484,466 Q492,459 512,457 Q551,453 584,422 Q600,407 600,399 Q599,391 592,373.5 Q585,356 581,353 Q560,341 542,346 Q533,349 526.5,355 Q520,361 504,384 Q490,406 485,402 Q481,397 474,329 Q462,208 478,179 Q483,169 489.5,152.5 Q496,136 496,130 Q496,123 482,112 L470,100 L451,105 Q431,111 417,123 Q402,136 397.5,141.5 Q393,147 385.5,162.5 Q378,178 377.5,195.5 Q377,213 382,260 L388,325 Q394,381 400,399 Q403,408 405,431 Q407,454 409,464 Q410,471 410,475 Q410,479 406,479.5 Q402,480 395,478 Q388,476 375,470 Q346,458 336.5,451 Q327,444 318,442 Q309,440 299,433.5 Q289,427 253,427 Q226,427 218.5,428.5 Q211,430 196,438 Q181,445 168,456 Q155,467 155,472 Q155,474 144,487 Q124,511 139,528 Q150,537 168,528 Q189,517 202.5,515 Q216,513 248,515 Q278,517 286,519.5 Q294,522 314,532 Q341,545 346,550 Q352,555 370,566 Q388,577 390,577 Q392,577 434.5,595.5 Q477,614 500,620.5 Q523,627 532,631 Q545,637 583,643 Q595,645 601,648.5 Q607,652 628.5,654 Q650,656 667,658"/> 
            <glyph glyph-name="不" unicode="&#x4E0D;" horiz-adv-x="779" d=" M661,604 Q680,606 699.5,600.5 Q719,595 726,586 Q732,579 732,574 Q732,569 725,558 Q716,546 702,543 Q688,540 656,542 L622,545 L568,532 Q513,519 510,514 Q504,508 487.5,462.5 Q471,417 471,407 Q471,399 477,388.5 Q483,378 487,376 Q493,374 499.5,361.5 Q506,349 507,337 Q509,319 516,316.5 Q523,314 562,314 Q615,316 671,309 Q701,306 734,285 Q751,273 765,257.5 Q779,242 779,234 Q779,214 745,211 Q726,209 724,210 Q722,211 687.5,216.5 Q653,222 638,230 Q623,238 611.5,241.5 Q600,245 574,260 Q529,287 518,282 Q511,278 508,255 Q505,232 505,166 Q504,109 503,95.5 Q502,82 498,77 Q488,63 457.5,66 Q427,69 418,85 Q395,127 393,150 Q393,160 394,162 Q395,164 401,166 Q410,169 415,176 Q426,194 424,270 Q424,297 423,303.5 Q422,310 418,310 Q413,310 406,296.5 Q399,283 390,273 Q368,249 353,221 Q342,199 322,179 Q318,174 308.5,159.5 Q299,145 270,117 L214,65 Q167,20 138,22 Q116,24 133,44 Q137,50 144,56 Q170,83 225,164 Q254,208 273,229 Q284,241 284,244.5 Q284,248 290,255 Q298,264 323,299 L353,344 Q383,391 388.5,400.5 Q394,410 393,422 Q393,437 398,438 Q409,440 417,446 Q425,452 438,467 Q452,487 454,493 Q456,499 451,502 Q447,505 435.5,497.5 Q424,490 415.5,488.5 Q407,487 387.5,477 Q368,467 366,467 Q359,467 298,438 Q285,430 279,429 Q273,428 251,430 Q222,431 177,448 Q110,472 110,478 Q110,482 116.5,483.5 Q123,485 154,487 Q193,490 235,504 Q364,548 432,565 Q502,583 525,583 Q532,583 550.5,586.5 Q569,590 596.5,592 Q624,594 638.5,598 Q653,602 661,604"/> 
            <glyph glyph-name="业" unicode="&#x4E1A;" horiz-adv-x="796" d=" M556,708 Q561,710 574.5,708.5 Q588,707 596,703 Q606,698 608.5,690 Q611,682 608,667 Q601,634 590,588 Q582,560 578,533 Q576,510 578.5,503.5 Q581,497 598,491 Q611,486 615.5,489.5 Q620,493 618,507 Q617,521 614,522 Q612,522 611,526 Q610,530 611,533 Q612,536 613,536 Q616,536 624.5,519.5 Q633,503 652,490 Q670,478 676.5,470.5 Q683,463 683,456 Q683,430 647,441 Q626,447 603,464 Q578,482 576,482 Q566,482 561,446 Q558,423 555,415.5 Q552,408 549.5,389 Q547,370 543,361 Q540,351 537,322 Q534,293 535,278 Q535,258 532,252 Q529,246 532.5,242.5 Q536,239 581,243 Q626,247 660,246 Q685,246 690.5,246.5 Q696,247 701,252 L708,259 L733,251 Q753,244 770.5,234.5 Q788,225 792,217 Q796,210 791,202 Q779,184 758,184 Q748,184 725,191 Q668,208 558,181 Q479,161 426,140 Q409,133 385.5,126.5 Q362,120 315,98 Q271,77 251.5,72 Q232,67 204,69 Q174,70 155,79 Q133,89 114.5,111 Q96,133 96,150 Q96,166 123,153 Q144,142 174,139 Q204,136 221,142 L311,174 Q354,190 354,197 Q354,201 346,205 Q340,209 341,225 Q342,245 350,246 L356,247 Q358,247 361.5,256 Q365,265 363,267 Q362,270 357,304 Q353,338 351,345 Q349,352 345,352 Q339,352 339,345 Q339,338 334.5,325 Q330,312 326,293 Q324,281 320.5,275 Q317,269 306.5,258 Q296,247 291,244.5 Q286,242 276,240 Q264,239 258.5,241.5 Q253,244 240,254 Q230,264 223.5,279.5 Q217,295 217,310 Q217,337 236,379 Q242,394 245.5,397.5 Q249,401 254,400 Q262,399 271,385 Q294,354 303,354 Q309,354 323,363.5 Q337,373 342,380 Q348,391 346,402 Q344,413 343,439 Q342,465 339,500 Q336,535 333,570.5 Q330,606 321.5,623.5 Q313,641 314,645 Q317,652 339,647 Q361,642 374,632 Q383,625 385.5,610 Q388,595 389,541 Q392,446 398,430 Q402,421 402,402 Q402,383 405,371 Q408,359 410,329 Q415,278 425,271 Q429,268 441,276 Q453,284 466.5,300.5 Q480,317 482,325 Q483,332 487,344 Q491,356 493,376 Q495,396 499.5,407.5 Q504,419 506,435 Q509,469 519,490 Q524,498 524,512 Q524,533 535,601 Q541,634 541,666 Q541,691 543.5,697.5 Q546,704 556,708 M470,242 Q453,250 442,241 Q436,236 439,231 Q444,222 468,226 Q480,227 480.5,232 Q481,237 470,242"/> 
            <glyph glyph-name="中" unicode="&#x4E2D;" horiz-adv-x="737" d=" M382,733 Q385,742 400.5,742 Q416,742 430,738 Q442,735 463,718.5 Q484,702 489,694 Q499,675 490,651 Q484,633 483,612 Q482,591 479,565 Q476,532 476.5,504.5 Q477,477 481,472 Q484,469 487,468.5 Q490,468 500,472 Q546,486 581,493 Q610,499 622,506 Q634,513 655.5,513 Q677,513 701.5,502 Q726,491 731.5,483.5 Q737,476 734,460 Q729,443 714,425 Q699,407 678,397 Q657,385 652.5,385 Q648,385 622,371 L595,358 L595,341 Q595,325 592,322 Q589,319 570.5,315.5 Q552,312 528,301 Q512,295 505.5,291 Q499,287 492,276 Q473,253 467,192 Q465,173 466.5,137.5 Q468,102 470,98 Q475,90 464,19 Q459,-18 454,-33 Q449,-48 440,-51 Q428,-55 425,-41 Q423,-33 415,-22 Q386,15 385,144 Q385,148 385,155 Q384,204 379.5,209.5 Q375,215 348,201 Q343,199 341,198 Q317,186 309,183.5 Q301,181 286,181 Q266,181 251,189 Q239,196 224.5,211.5 Q210,227 208,235 Q206,242 211,247 Q214,251 214,253.5 Q214,256 209,267 Q202,280 189,295 Q163,323 163,344 Q163,352 158.5,367.5 Q154,383 156,407 Q158,434 164.5,437 Q171,440 197,426 Q221,415 227,411 Q233,407 237,399 Q242,391 257.5,375.5 Q273,360 273,356 Q273,351 283.5,330.5 Q294,310 301,299 Q310,289 316.5,287 Q323,285 336,289 Q367,298 371,327 Q374,344 368.5,351 Q363,358 339,366 Q314,376 299,386 Q278,401 288,405 Q289,405 290,405 Q325,409 337.5,412 Q350,415 358,421 Q383,441 387,479 Q390,494 392,503 Q397,520 398,652 Q399,687 387,719 M574,441 Q574,449 563,437 Q556,429 529,420 Q485,405 485,386 Q485,379 489,373.5 Q493,368 497,371 Q501,373 529.5,400 Q558,427 566,432.5 Q574,438 574,441"/> 
            <glyph glyph-name="件" unicode="&#x4EF6;" horiz-adv-x="757" d=" M561,718 Q564,723 579,716 Q589,711 600,699.5 Q611,688 614,680.5 Q617,673 613,649 Q608,624 607.5,594 Q607,564 610.5,559 Q614,554 635,552 Q656,550 661,547 Q667,545 674,533.5 Q681,522 681,516 Q681,510 665,497.5 Q649,485 638,482 Q626,478 621,471 Q616,464 616,450 Q616,434 621,429 Q626,424 639,428 Q686,443 716,442 Q757,441 756,426 Q756,420 745,414 Q730,405 691,394 Q674,388 651,377 Q640,371 635.5,367.5 Q631,364 626,359.5 Q621,355 621,343 Q621,331 621,320.5 Q621,310 622,281 Q631,139 633,113 Q635,98 636.5,73 Q638,48 640,37 Q650,-7 647,-15 Q644,-23 619,-20 Q597,-18 585,-10 Q565,2 559.5,40 Q554,78 554,207 Q554,292 550,298 Q547,302 545,302.5 Q543,303 536,300 Q528,296 516,283.5 Q504,271 495.5,269 Q487,267 475.5,257 Q464,247 443,236 Q416,222 387.5,222 Q359,222 339,236 Q326,245 322,235 Q319,228 316,195 Q311,150 311,133 Q310,109 303.5,90 Q297,71 287,66 Q279,62 274.5,65 Q270,68 264,80 Q258,92 259.5,115 Q261,138 271,195 Q277,229 283,277.5 Q289,326 288,332 Q284,350 269,327 Q268,326 267,325 Q240,280 215,264 Q200,253 191,246 Q184,241 172,238.5 Q160,236 152,239 Q141,243 136.5,252 Q132,261 137,270 Q143,281 207,358 Q228,383 252,437 Q267,473 284.5,527 Q302,581 304,602 Q306,621 311,622.5 Q316,624 330,611 Q348,594 351.5,579 Q355,564 347,532 Q340,501 331,479 Q322,457 319,444 Q316,431 306,405 Q297,382 296.5,374 Q296,366 302,359 Q310,348 316,316 Q319,299 326,294 Q333,289 348,291 Q380,294 434,330 Q460,346 506,370 Q546,389 552.5,397.5 Q559,406 559,434 Q559,453 554,458 Q549,463 523,468 Q496,473 488,467.5 Q480,462 469,432 Q462,410 455,405.5 Q448,401 434,409 Q425,414 412,414 Q397,415 392.5,421 Q388,427 388,446 Q388,465 399,490 Q410,515 410,520 Q410,525 415.5,541.5 Q421,558 422,575 Q424,593 429.5,594.5 Q435,596 450,583 Q466,570 475,558 Q481,550 482.5,545 Q484,540 484,522 Q484,496 489,493 Q494,490 521,502 Q522,503 526,505 Q550,516 554,526 Q558,536 560,583 Q560,590 560,593 Q562,659 564,681 Q566,703 562.5,709.5 Q559,716 561,718"/> 
            <glyph glyph-name="优" unicode="&#x4F18;" horiz-adv-x="830" d=" M566,637 Q575,647 605,638 Q635,631 650,611 Q665,590 654,571 Q651,565 641,559 Q631,553 625,553 Q620,553 598.5,569.5 Q577,586 569,604 Q562,620 561.5,626 Q561,632 566,637 M445,690 Q453,693 476,692 Q499,691 506,686 Q516,681 525.5,671.5 Q535,662 536,656 Q538,649 533.5,638 Q529,627 519,581 Q513,549 512,541 Q511,533 514,530 Q519,525 531,522 Q543,519 556,520 Q569,522 586,519 Q603,516 613.5,504 Q624,492 624,486 Q624,478 614,467.5 Q604,457 592,455 Q582,453 559,442.5 Q536,432 527,425 Q519,419 506,412 Q484,400 498,381 Q519,356 523,341 Q527,326 519,308 Q502,271 492,230 Q482,189 483,166 Q485,139 494.5,129 Q504,119 538,115 Q567,111 600,117 Q674,129 699,147 Q717,160 716,187 Q716,202 716,205.5 Q716,209 741.5,207 Q767,205 791,194 Q814,185 820,179.5 Q826,174 828,165.5 Q830,157 821.5,139 Q813,121 804,115 Q795,108 781,102.5 Q767,97 760,97 Q754,97 712.5,87.5 Q671,78 650,71 Q634,67 616,65 Q600,64 548,67.5 Q496,71 486,74 Q457,82 441,116 Q434,130 433,138 Q432,146 432,176 Q432,208 436,228.5 Q440,249 460,318 Q463,327 464.5,335.5 Q466,344 464.5,349 Q463,354 461,354 Q457,354 435.5,312 Q414,270 407.5,263.5 Q401,257 401,250.5 Q401,244 399,244 Q397,244 392,235 Q387,226 387,221 Q387,215 377.5,203 Q368,191 362.5,182 Q357,173 335,152 Q316,132 303,127 Q290,122 270,124 Q257,125 253.5,124.5 Q250,124 247,118 Q243,110 241,98 Q239,82 230.5,64.5 Q222,47 216,44 Q208,41 198,42.5 Q188,44 182,50 Q176,55 174,72.5 Q172,90 180,107 Q191,131 196,170 Q198,191 204,220 Q226,325 225,345 Q223,362 207,351 Q200,345 188,333 Q144,290 140,290 Q137,290 126,284 Q109,276 75,286 Q62,290 61,294.5 Q60,299 68,311 Q76,321 80,329 Q88,344 123,371 Q133,378 137.5,387 Q142,396 157.5,416.5 Q173,437 189,465.5 Q205,494 213,504 Q222,515 229.5,539.5 Q237,564 238,583 Q239,606 234,617 Q224,636 232,643 Q237,648 253,644 Q269,640 282,631 Q320,606 320,573 Q320,559 305.5,522 Q291,485 280,467 Q268,451 268,448 Q268,445 259,429 Q249,416 248.5,410 Q248,404 257,397 Q262,392 266.5,390.5 Q271,389 290,389 Q310,391 317,393 Q324,395 344,405 Q386,428 398,437 Q410,446 416,458 Q427,481 449,573 Q462,631 462,641.5 Q462,652 449,666 Q432,683 445,690 M291,363 Q278,375 276,368 Q275,364 273.5,318 Q272,272 265.5,230.5 Q259,189 262,181.5 Q265,174 272,177.5 Q279,181 289,196 Q300,211 320.5,245 Q341,279 341,281 Q341,283 353,307 Q363,327 361.5,332.5 Q360,338 344,341 Q309,346 291,363"/> 
            <glyph glyph-name="会" unicode="&#x4F1A;" horiz-adv-x="820" d=" M446,354 Q457,360 476,360 Q493,360 509,353 Q525,346 529,338 Q532,330 522.5,311.5 Q513,293 510,293 Q507,293 503,283 Q499,273 495,273 Q491,273 464,245 Q440,217 445,215 Q451,214 465,220.5 Q479,227 486,227 Q496,227 499.5,232.5 Q503,238 503,252 Q504,270 507.5,273 Q511,276 524,270 Q542,261 559,232 Q576,203 580,173 Q583,155 581.5,144 Q580,133 573,105 Q569,87 563.5,81.5 Q558,76 550,77 Q520,83 511,88 Q504,94 495,140 Q492,155 487,158 Q482,161 473,155 Q464,149 453,145 Q442,141 424.5,129 Q407,117 400,114 Q393,111 378,100.5 Q363,90 357.5,89.5 Q352,89 348,89 Q344,89 331,84 Q283,67 267,92 Q263,99 258,123 Q253,147 254,152 Q256,157 267.5,163 Q279,169 283.5,176 Q288,183 300.5,187 Q313,191 321.5,203.5 Q330,216 335,217 Q341,218 353.5,230 Q366,242 364,246 Q361,253 338,244 Q324,238 304,235.5 Q284,233 274,231 Q264,229 254,237 Q239,250 237,267 Q235,284 248,294 Q259,302 263,301.5 Q267,301 268,291 Q270,277 275.5,274.5 Q281,272 299,278 Q319,285 375,312.5 Q431,340 439,346 M395,707 Q398,716 404,716 Q412,716 431.5,703.5 Q451,691 462,678 Q476,663 476.5,654 Q477,645 462,631 Q418,583 418,576 Q418,570 457,542 Q554,471 617,468 Q637,467 641,464.5 Q645,462 677,462 Q753,461 803,429 Q814,423 817,415 Q820,407 811,403 Q806,401 769,393.5 Q732,386 706,383 Q664,378 615,389 Q580,399 552,415 L523,432 Q491,451 427,505 Q397,533 388,530 Q383,528 373,508.5 Q363,489 348,464 Q331,440 328,433 Q325,426 327,422 Q328,417 348,419 Q368,421 386,424 Q415,429 444,419 Q458,413 458,402.5 Q458,392 442,384 Q418,373 354,395 L317,407 L310,400 Q302,394 288,369 Q253,311 230,287 L179,233 Q149,203 142,197 Q135,191 119,186 Q115,185 109,183 Q83,175 78.5,175 Q74,175 73,182 Q73,183 72,184 Q70,192 73.5,192 Q77,192 77,198.5 Q77,205 91,217 Q105,229 111.5,239 Q118,249 128.5,255 Q139,261 143,272 Q147,283 162.5,300.5 Q178,318 193,342.5 Q208,367 218,380 Q233,399 283,485 L313,536 Q327,562 329,568 Q331,574 329,581 Q326,590 327,593 Q328,596 337,598 Q343,599 349,606 Q355,613 373,641 Q402,685 398,698"/> 
            <glyph glyph-name="使" unicode="&#x4F7F;" horiz-adv-x="846" d=" M456,754 Q484,760 508,749 Q525,741 529.5,727.5 Q534,714 527,686 Q523,668 521,636 Q520,609 522.5,603 Q525,597 541,597 Q555,597 565,587.5 Q575,578 575,568 Q575,548 544,532 Q514,517 523,508 Q527,504 543,508 Q559,512 579,522 Q609,537 642,528 Q651,525 665.5,512.5 Q680,500 684,491 Q695,464 678,440 Q633,372 565,339 Q515,314 505,306 Q491,293 486,226 L484,199 L497,189 Q506,181 530.5,167.5 Q555,154 573,147 Q632,125 727,110 Q755,105 765.5,100.5 Q776,96 797,94 Q832,88 843,73 Q846,67 835,57 Q820,44 813.5,41.5 Q807,39 793,38 Q773,38 758,34 Q738,30 698,28.5 Q658,27 646,30 Q629,35 592,54 Q555,73 543,84 Q531,95 519,102.5 Q507,110 487,123 Q472,135 466,135 Q460,135 455,123 Q450,114 442.5,109 Q435,104 420.5,93 Q406,82 386,73 L367,64 L332,66 Q296,68 286,75 L274,82 L262,75 Q233,59 213,71 Q201,78 195,85 Q170,111 178,165 Q181,185 184.5,211 Q188,237 192,263 Q199,291 193,291 Q187,291 160,263 Q128,231 116.5,225.5 Q105,220 93,211 Q79,203 71.5,204.5 Q64,206 53,221 Q44,234 48.5,242.5 Q53,251 84,283 Q171,370 215,469 Q257,567 257,616 Q257,631 260,633 Q263,635 270.5,624 Q278,613 282,601 Q287,586 286.5,547 Q286,508 282,492 Q276,474 274,462 Q266,413 226,351 Q213,329 212,320.5 Q211,312 220,290 Q239,249 245,208 Q254,150 260,126.5 Q266,103 276,93 Q284,85 291,86.5 Q298,88 320,101 Q353,119 377,149.5 Q401,180 397,198 Q391,220 342,234 Q322,240 314.5,245 Q307,250 288,275 Q274,290 266,298 Q252,310 259,313 Q259,314 261,314 Q265,314 277,310 Q291,304 304,305 Q317,306 322,311 Q327,316 323,332 Q316,359 323,413 Q330,467 341,476 Q351,484 356.5,480.5 Q362,477 374,455 Q382,439 391,438.5 Q400,438 421,453 Q453,477 456,499 Q459,524 435,533 L403,546 Q384,554 384,559.5 Q384,565 408,566 Q451,569 458,586 Q466,606 470,686 L472,721 L463,729 Q454,739 449,739 Q444,739 445,745.5 Q446,752 456,754 M435,405 Q430,411 413.5,417 Q397,423 393,420 Q390,418 391,412 Q392,406 403,371 Q411,349 414,346 Q418,344 424.5,350.5 Q431,357 436,366 Q447,391 435,405 M421,268 Q418,272 407.5,268 Q397,264 396,257 Q395,251 401.5,247.5 Q408,244 413,247 Q418,249 420.5,256.5 Q423,264 421,268"/> 
            <glyph glyph-name="例" unicode="&#x4F8B;" horiz-adv-x="774" d=" M548,482 Q555,490 557.5,490 Q560,490 593,457 Q616,436 622,427.5 Q628,419 631,408 Q636,391 636,368 L637,345 L624,332 Q612,320 603.5,318.5 Q595,317 587,323 Q565,342 561,385 Q559,412 557,413.5 Q555,415 556.5,422.5 Q558,430 548,482 M442,568 Q451,575 455.5,576 Q460,577 475,576 Q510,573 515,560 Q522,545 499,507 Q482,477 476.5,469 Q471,461 469,454 Q468,449 468.5,448 Q469,447 473,447 Q480,447 490,452.5 Q500,458 511,454 Q530,446 540,432 Q550,418 546,406 Q528,346 495,280.5 Q462,215 431,176 Q423,166 394.5,141.5 Q366,117 362,117 Q358,117 348.5,121 Q339,125 331,127 Q326,128 317.5,138 Q309,148 309,152 Q309,154 321,162 Q338,173 361.5,199 Q385,225 398,247 Q406,261 404.5,266.5 Q403,272 384,289 Q373,300 369.5,302 Q366,304 361,302 Q348,297 333,309.5 Q318,322 318,336 Q318,356 334,368 Q342,374 356.5,395 Q371,416 378,426 Q410,466 425,493 Q432,507 433.5,510 Q435,513 430,517 Q425,522 417.5,522 Q410,522 393.5,526.5 Q377,531 374,533 Q366,542 386,545 Q388,545 392,546 Q416,548 442,568 M485,394 Q485,405 466,393 Q423,366 412.5,358 Q402,350 402,344 Q402,332 427,321 L440,316 L447,324 Q453,331 469,361 Q485,391 485,394 M289,645 Q292,650 299.5,648.5 Q307,647 316.5,639.5 Q326,632 335,621 Q367,583 352,536 Q329,470 319,456 Q312,445 312,443 Q312,441 302,426 Q290,410 282,389 Q279,379 269,367 Q244,337 240.5,324.5 Q237,312 246,284 Q259,248 267,206 Q269,196 276,164 Q284,124 283,109 Q283,106 270.5,100 Q258,94 246,97 Q235,100 224,111 Q213,122 209,139 Q204,156 208,212 Q208,212 208,214 Q211,271 211,280 Q211,289 206,289 Q200,289 193.5,279 Q187,269 176.5,263.5 Q166,258 165,254 Q160,242 142,257 Q129,268 121.5,279.5 Q114,291 118,298.5 Q122,306 130.5,310.5 Q139,315 144,325 Q149,335 167,354 Q185,373 201,403.5 Q217,434 226.5,445 Q236,456 251,485 Q266,514 270,519 Q274,524 284,555 Q294,586 295,600 Q297,616 292.5,628.5 Q288,641 289,645 M633,714 Q645,718 673,710 Q701,702 716,688 Q727,678 737,664 L746,651 L744,598 Q742,546 738,509 Q730,444 728.5,377 Q727,310 734,285 Q737,272 738.5,249 Q740,226 744,207 Q748,188 751,163 Q755,135 770,76 Q774,61 774,45 Q774,33 769.5,27.5 Q765,22 749,15 Q740,11 734,11 Q728,11 707,15 Q676,20 638,32 Q600,44 592,53 Q588,56 584.5,71.5 Q581,87 581,102 Q581,114 588,118.5 Q595,123 601,118.5 Q607,114 608.5,105.5 Q610,97 618,87.5 Q626,78 642,77 Q694,73 694,107 Q694,119 687,148 Q675,211 667,327 Q661,415 668,494 Q672,541 672,585 Q672,629 668,641 Q663,657 653,675 Q643,693 636,698 Q631,703 630,707.5 Q629,712 633,714"/> 
            <glyph glyph-name="供" unicode="&#x4F9B;" horiz-adv-x="788" d=" M628,293 Q631,299 634,299 Q651,299 706,280 Q750,264 770,238 Q788,216 772,185 Q761,163 748.5,158.5 Q736,154 715,163 Q704,169 701,169 Q698,169 683,185.5 Q668,202 662,212 Q656,221 655.5,224.5 Q655,228 657,236 Q663,254 640,280 M326,645 Q329,656 341,642 Q353,631 353.5,598 Q354,565 343,539 L329,501 Q309,448 291,422 Q284,411 274,391.5 Q264,372 264,368 Q264,364 277,348 Q288,333 291.5,323 Q295,313 299.5,285 Q304,257 307,241 L317,187 Q331,112 319,100 Q313,94 298,95.5 Q283,97 272,107 Q235,144 248,280 Q252,323 251.5,331 Q251,339 247,339 Q240,339 210,299 Q199,285 181.5,267.5 Q164,250 159,248 Q152,246 139,250.5 Q126,255 120,261 Q113,270 111,282 Q110,292 112,295 Q114,298 127,309 Q145,323 167.5,347 Q190,371 196,384 Q203,399 218,418 Q241,450 275,513 Q309,576 312,592 Q315,610 326,645 M618,704 Q629,710 650,708 Q680,706 687,698 Q694,690 687,661 Q680,634 675,620 Q659,575 662,567 Q664,562 691,558 Q700,557 707.5,553 Q715,549 715,545 Q715,540 702,528.5 Q689,517 670,507 Q642,492 635,484 Q628,476 624,455 Q621,434 616,423 Q607,405 615,398 Q619,394 631,399 Q704,424 699,400 Q699,398 698,395 Q694,386 688,380 Q671,365 649,359 Q639,356 620.5,342.5 Q602,329 590,318 Q578,304 568.5,302.5 Q559,301 534,279.5 Q509,258 496,251 Q474,237 466.5,230 Q459,223 459,215 Q460,193 476,185 Q485,179 493,159 Q509,118 506,100 Q503,85 497.5,80.5 Q492,76 478,76 Q449,76 431,96 Q422,106 419.5,112 Q417,118 414,140 Q412,154 415,174 Q418,194 424,206 Q428,214 424.5,218.5 Q421,223 407,224 Q379,228 360,250 Q341,272 341,301 Q341,320 348.5,327 Q356,334 360.5,334 Q365,334 370.5,326 Q376,318 376,313 Q376,302 388.5,292 Q401,282 412,282 Q419,282 440,291.5 Q461,301 471,310 Q482,319 494,325 Q512,334 539,367 Q552,384 562,416 Q572,455 564,454 Q553,450 522,424 Q517,420 515,415 Q513,410 513,389 Q513,360 507.5,354.5 Q502,349 488,352 Q475,355 469,359.5 Q463,364 455,378.5 Q447,393 440.5,398 Q434,403 417,408 Q409,410 399.5,415.5 Q390,421 384,426 Q378,431 379.5,433.5 Q381,436 393,429 Q403,424 416,423.5 Q429,423 436,427 Q440,430 441,438 Q442,446 442,478 Q442,524 447,535 Q454,548 459.5,546.5 Q465,545 471,528 Q492,468 501,465 Q506,464 514.5,468 Q523,472 552,492 Q585,513 588.5,519.5 Q592,526 600,553.5 Q608,581 608,587 Q608,594 613.5,608 Q619,622 623,643 Q626,664 623.5,669.5 Q621,675 608,675 Q588,675 596,687 Q602,696 618,704"/> 
            <glyph glyph-name="入" unicode="&#x5165;" horiz-adv-x="841" d=" M193,476 Q219,480 249,478 Q268,477 276.5,474.5 Q285,472 299,464 Q320,452 330.5,452 Q341,452 348,448.5 Q355,445 369,430 Q384,416 392,398 Q401,374 427.5,343 Q454,312 473,300 Q485,293 485,290.5 Q485,288 499,281.5 Q513,275 523,268 Q546,250 559,250 Q566,250 580.5,243 Q595,236 602,236 Q609,236 626,231.5 Q643,227 660,224 Q700,217 755.5,204 Q811,191 824,184 Q829,181 835,171.5 Q841,162 841,156 Q841,150 831.5,143 Q822,136 798,137 Q735,138 653,118 Q634,114 628,114 Q620,114 597.5,125.5 Q575,137 556,149.5 Q537,162 518,173.5 Q499,185 485.5,196.5 Q472,208 450,225 Q415,251 374,297 Q356,317 352.5,317 Q349,317 332.5,298 Q316,279 303,258 Q296,248 274,225 Q243,189 219,154 Q190,112 152.5,86 Q115,60 85,63 Q74,64 61,70 Q48,76 48,81 Q48,85 62,91 Q76,97 90,108 Q115,126 176,207 L203,241 Q215,256 242,297 Q269,338 277,355 Q296,387 280,404 Q271,412 260,412 Q249,412 234,417.5 Q219,423 208,423 Q180,423 138,445 Q128,450 124.5,453 Q121,456 122,459 Q122,465 145,468"/> 
            <glyph glyph-name="减" unicode="&#x51CF;" horiz-adv-x="846" d=" M270,338 Q284,353 284,344 Q284,342 283,340 Q278,329 255,280 Q248,267 228.5,245.5 Q209,224 209,221 Q209,216 194.5,202 Q180,188 166,179 Q147,165 136,155 Q117,139 86,153 Q53,167 47,202 Q44,221 44,226 Q44,231 51.5,243 Q59,255 63.5,256.5 Q68,258 90,246 L113,235 L138,243 Q164,251 185,266 Q202,276 228.5,299 Q255,322 270,338 M342,624 Q356,626 381,624 Q406,622 419,619 Q432,615 447.5,604 Q463,593 481,574 Q499,555 502,547 Q505,538 511,531.5 Q517,525 521,525 Q526,525 552.5,537.5 Q579,550 586,550 Q593,550 609.5,543 Q626,536 628,532 Q630,526 623,520.5 Q616,515 592,503 Q561,488 550,478 L539,467 L540,443 Q543,396 574,331 Q582,317 585.5,310.5 Q589,304 592.5,303 Q596,302 598.5,307 Q601,312 605,323 Q618,366 616,414 Q614,441 619,443 Q625,445 630.5,437.5 Q636,430 639,418 Q644,402 644,361 Q644,329 641,312 Q638,295 627,269 Q619,251 623,241.5 Q627,232 652,194 Q677,156 712,121.5 Q747,87 754,88 Q759,89 759.5,93 Q760,97 759,117 Q758,152 758,159.5 Q758,167 762,168 Q765,168 768,162.5 Q771,157 776,143 Q793,97 809,82 Q834,60 841,31 L846,15 L828,-1 Q812,-16 808,-18 Q794,-22 757,2 Q737,16 696,53 Q669,78 656.5,92 Q644,106 623,138 Q591,184 585.5,186.5 Q580,189 556,178 L532,165 L527,171 L521,178 L533,184 Q543,190 551,201 Q559,212 559,221 Q559,230 555,240.5 Q551,251 548,253 Q543,255 537,251 Q529,244 515.5,224.5 Q502,205 502,202 Q502,198 508,189.5 Q514,181 509,176 Q504,171 477,161 Q441,149 431,146.5 Q421,144 409,145 Q392,147 383.5,142.5 Q375,138 371,138 Q365,138 348,171 Q341,187 331,171 Q326,164 319,151 Q303,120 286,91.5 Q269,63 264,60 Q258,56 246,62 Q232,68 228,78 Q224,88 225,115 Q225,143 228,145.5 Q231,148 238,149 Q249,151 276,215 Q288,241 300.5,284 Q313,327 313,337.5 Q313,348 317,364 Q326,396 312,415 Q303,428 295,412 Q288,400 277.5,397 Q267,394 227,394 Q180,393 180,396.5 Q180,400 183,402 Q187,404 185.5,411 Q184,418 178,424 Q170,431 159,439 Q139,450 122,463 Q105,476 105,479 Q105,488 147,495 Q188,501 229,491 Q261,484 285,461 Q297,449 301.5,450.5 Q306,452 307,467 Q308,485 313,485 Q318,485 330,468 Q340,452 347,448 Q354,444 369,444 Q382,444 405.5,453.5 Q429,463 442,473 Q453,482 452,491 Q450,501 438,518 Q426,535 417,543 Q404,552 383.5,571 Q363,590 346,601 Q338,607 333.5,610.5 Q329,614 329,616.5 Q329,619 332,620.5 Q335,622 342,624 M473,429 Q466,439 452,430 Q444,426 420.5,420.5 Q397,415 389,415 Q372,415 378,393 Q382,378 387,372.5 Q392,367 400,368 Q411,368 423,374 Q448,387 473,374 Q489,365 485,353.5 Q481,342 459,333 Q442,327 427,330.5 Q412,334 400.5,342.5 Q389,351 384.5,347 Q380,343 377,321 Q374,298 372.5,295.5 Q371,293 375.5,283 Q380,273 380,265.5 Q380,258 385.5,252.5 Q391,247 396.5,248.5 Q402,250 413.5,260 Q425,270 440,280 L466,297 Q476,304 497.5,304 Q519,304 520.5,309 Q522,314 511,340.5 Q500,367 496,378 Q483,417 473,429 M431,227 Q428,231 416,226 Q398,217 401,209 Q402,206 409,206 Q415,206 424,214.5 Q433,223 431,227 M573,648 Q584,649 595,649 Q612,650 632.5,635 Q653,620 649,612 Q646,607 634,603 Q622,599 601,608 Q580,616 559.5,626 Q539,636 539,639 Q539,643 573,648"/> 
            <glyph glyph-name="列" unicode="&#x5217;" horiz-adv-x="729" d=" M502,506 Q508,513 511.5,512 Q515,511 530,501 Q554,485 575.5,457 Q597,429 609,400 Q614,383 614,372.5 Q614,362 607,342 Q602,327 595.5,317.5 Q589,308 585,309 Q558,315 543,334 Q538,341 537,348 Q536,355 538,383 Q540,422 535.5,442.5 Q531,463 516,486 M365,624 Q380,635 388,636.5 Q396,638 410,634 Q435,627 435,609 Q435,600 414,561 Q393,522 370,486 Q355,461 355,458 Q355,450 373,463 Q384,471 406,471 Q458,470 458,439 Q458,425 453,392.5 Q448,360 445,354 Q441,345 441,340 Q441,335 431,314 Q421,293 421,291 Q421,287 402.5,252.5 Q384,218 379,213 Q374,207 367,193 Q354,164 325,139 Q310,124 305,119 Q301,114 267.5,93 Q234,72 223,69 Q216,67 208,60 Q199,53 186.5,53.5 Q174,54 167,61 Q160,68 161,72 Q162,76 174,84 Q188,93 233,137.5 Q278,182 289,198 Q325,249 325,264 Q325,270 290,306 L255,340 L237,334 Q218,328 211.5,328 Q205,328 198.5,334.5 Q192,341 192,348 Q192,355 201.5,369 Q211,383 223,395 Q238,406 263,436 Q288,466 304,490 Q321,514 329,525 Q337,535 336,540.5 Q335,546 327,546 Q287,543 267,546 Q247,549 226,562 Q201,576 207,581 Q209,583 220,580 Q231,576 256,578 Q281,580 298,585 Q325,593 365,624 M380,408 Q377,412 373.5,412 Q370,412 334,393 Q273,361 272,354 Q271,350 275,345 Q284,335 327,332 Q356,331 362,336 Q372,345 379,373 Q386,401 380,408 M652,717 Q655,722 663,720.5 Q671,719 683,710 Q695,701 705,688 Q719,670 721.5,653 Q724,636 721,577 Q718,511 717,482.5 Q716,454 714,409 Q710,291 714,180 Q716,119 723,79 Q729,46 728.5,30.5 Q728,15 720,4 Q709,-9 682,13 Q669,24 657,27 Q599,42 576,64 Q567,72 572,73 Q577,74 588.5,69.5 Q600,65 624,67 Q656,69 666.5,78.5 Q677,88 673,112 Q664,166 660,230 Q655,310 655,354 Q655,364 658.5,462 Q662,560 662,622 Q662,664 661,675.5 Q660,687 656,698 Q649,713 652,717"/> 
            <glyph glyph-name="到" unicode="&#x5230;" horiz-adv-x="722" d=" M362,624 L377,629 Q378,629 391,623 Q401,619 408.5,609.5 Q416,600 416,591 Q416,585 406,573 Q384,546 360,490 Q350,471 350.5,445 Q351,419 360.5,399 Q370,379 375.5,362.5 Q381,346 388,329 Q403,294 403.5,252 Q404,210 389,199 Q385,196 363.5,187 Q342,178 327,163 Q315,152 312.5,148 Q310,144 314,142 Q318,140 348,155.5 Q378,171 388,181 Q401,192 418,203 Q430,211 449,227 Q468,243 473,250 Q477,255 479,255 Q488,255 499,279 Q504,289 504,292 Q504,295 501,306 Q496,318 489,327.5 Q482,337 481,345 Q481,355 477,370 Q473,382 473.5,396.5 Q474,411 477.5,414.5 Q481,418 499,415 Q517,412 532,406 Q545,400 552,404 Q566,412 566,397 Q566,388 570,380 Q577,369 583.5,346.5 Q590,324 591,311 Q592,298 591.5,293.5 Q591,289 585,281 Q577,270 570.5,267.5 Q564,265 547,268 Q528,270 524,268.5 Q520,267 513.5,253.5 Q507,240 498,227.5 Q489,215 489,214 Q489,211 470,187 Q451,163 443,157 Q395,113 359,93 Q323,73 264,58 Q223,46 210,48 Q193,50 181.5,61 Q170,72 168,88 Q167,97 169,102 Q171,107 181,120 Q191,133 196.5,137.5 Q202,142 216,147 Q251,161 260,176 Q263,181 250,194 Q239,206 231.5,220.5 Q224,235 226,243 Q233,268 249,290 Q267,315 301,326 Q322,332 324.5,336.5 Q327,341 308,378 Q292,411 290.5,426.5 Q289,442 297,476 Q304,502 300.5,505 Q297,508 272,503.5 Q247,499 227,503 Q209,506 204,508.5 Q199,511 200,515 Q200,521 214,523 Q258,529 325,595 Q347,619 362,624 M320,263 Q319,266 311,267 Q307,268 302,264 Q297,260 294,255.5 Q291,251 294,249 Q298,245 310,250.5 Q322,256 320,263 M608,736 Q610,740 615.5,738.5 Q621,737 642,726 Q676,711 692,685 Q699,675 700.5,658.5 Q702,642 698,599 Q693,543 692.5,486.5 Q692,430 688,381 Q684,332 687.5,283 Q691,234 690,221 Q688,153 707,80 Q714,52 717,38 Q722,9 722,3 Q722,-3 717,-7 Q708,-16 685,-18.5 Q662,-21 647,-14 Q637,-8 627,-6 Q590,1 560,33 Q540,54 540,56.5 Q540,59 553,61.5 Q566,64 578.5,59.5 Q591,55 611,55 Q635,55 638.5,61 Q642,67 639,101 Q635,138 638.5,143.5 Q642,149 640,156 Q638,163 641.5,174.5 Q645,186 642,190 Q639,194 637,204 Q636,212 634,247.5 Q632,283 633,286 Q633,289 634,340 Q635,391 640,507 Q645,628 642,657 Q639,686 618,716 Q606,733 608,736"/> 
            <glyph glyph-name="前" unicode="&#x524D;" horiz-adv-x="773" d=" M537,394 Q543,403 568,376 Q598,345 609,319 Q615,306 616,291 Q617,276 612,272 Q609,270 592,268 L575,267 L565,277 Q550,295 543,327 Q541,339 538.5,365.5 Q536,392 537,394 M613,519 Q619,523 623.5,523 Q628,523 647,516 Q671,510 683.5,495 Q696,480 703,450 Q721,364 730,276 Q737,197 739,175 Q740,159 747,130 L754,88 Q757,75 758.5,54.5 Q760,34 763,18 Q772,-30 744,-46 Q736,-50 717,-48.5 Q698,-47 687,-43 Q675,-36 661,-31.5 Q647,-27 646,-24 Q646,-23 648.5,-20.5 Q651,-18 655,-16 Q664,-11 675,3 Q686,17 688,24 Q690,31 687,46.5 Q684,62 685,68 Q686,74 681,105 Q674,147 668,227 Q665,265 662.5,296 Q660,327 657,364 Q649,466 638,483 Q633,490 622,496 Q601,509 613,519 M511,748 Q522,753 528.5,753 Q535,753 551,748 Q580,740 594,722 Q600,713 596.5,690 Q593,667 583,652 Q576,640 574,626.5 Q572,613 568,609 Q564,605 565,604 Q567,600 587.5,600.5 Q608,601 615,604 Q624,608 647.5,610.5 Q671,613 677.5,616 Q684,619 706,615.5 Q728,612 740,607 Q773,592 725,582 Q710,579 686,577 Q652,572 639.5,568.5 Q627,565 613.5,565.5 Q600,566 594,560 Q588,554 562.5,540 Q537,526 521,520 Q504,512 487,502 Q455,484 413,462 Q383,448 378.5,442 Q374,436 376,415 Q377,398 382,394.5 Q387,391 388.5,391 Q390,391 416,414 Q448,442 456.5,446.5 Q465,451 485,449 Q509,447 515,441 L522,434 L520,338 Q515,114 521,73 Q524,54 524.5,37 Q525,20 518.5,13.5 Q512,7 499.5,7 Q487,7 466,20 Q451,30 436.5,44.5 Q422,59 418,68 Q415,75 406.5,87.5 Q398,100 390.5,115 Q383,130 379,130 Q375,130 375,129 Q375,128 372,108 Q370,93 371,87.5 Q372,82 378,69 Q390,41 377,35 Q370,32 357,41.5 Q344,51 326,69 Q306,89 302,107.5 Q298,126 303,176 Q308,230 320,273 Q330,310 338,346 Q343,370 349,395 Q357,425 354,429.5 Q351,434 326,423 Q254,395 204,404 Q186,408 165.5,419 Q145,430 134,441 Q125,451 124,454.5 Q123,458 127,461 Q131,465 151,460 Q211,444 303,482 Q333,494 342,498 Q352,501 385,518.5 Q418,536 422,539 Q427,544 434,559 Q441,574 440,577 Q439,580 429,580 Q415,580 398,591 Q381,602 374,617 Q368,628 356,670 Q352,683 355,700 Q362,728 369,730.5 Q376,733 396,711 Q415,691 421,686.5 Q427,682 433,687 Q442,693 442,690 Q442,688 441,686 Q436,668 449,654 Q459,644 463,635 Q471,618 478,639 Q480,643 482,650 Q487,666 494,686 Q499,704 498.5,710.5 Q498,717 491,721 Q483,724 483,726 Q483,729 492.5,736.5 Q502,744 511,748 M460,348 Q463,393 456,395 Q453,395 445,391 Q433,384 412,378 Q393,373 388,368 Q383,363 385,353 Q387,337 396,328 Q405,319 423,313 Q437,307 444,302 Q455,295 457,311 Q459,320 460,348 M405,281 Q396,301 391,301 Q387,301 386.5,297 Q386,293 385,278 Q383,200 399,155 Q409,132 423.5,112.5 Q438,93 448,93 Q456,93 458,101 Q460,109 459,141 Q457,173 454.5,180.5 Q452,188 439,188 Q427,188 418,207 Q409,226 407,258 M453,269 Q448,273 435.5,273 Q423,273 421.5,269.5 Q420,266 423,263 L435,245 Q447,231 452,231 Q455,231 456,234 Q457,237 457,248 Q457,266 453,269"/> 
            <glyph glyph-name="务" unicode="&#x52A1;" horiz-adv-x="825" d=" M380,751 Q383,756 398.5,751 Q414,746 422,737 Q437,721 437,695 Q437,672 404,592 Q400,582 404,580 Q412,575 447,611 L466,632 L483,632 Q503,632 522,620 Q541,608 541,593 Q541,587 528,566 Q512,542 481,487 Q467,464 468,457 L469,451 L562,451 Q675,450 731,440 Q787,430 815,408 Q823,401 824,393.5 Q825,386 818,382 Q810,378 662,378 Q476,378 454,370 Q435,361 453,351 Q461,345 477.5,328 Q494,311 494,306.5 Q494,302 499,298 Q509,289 541,308 Q560,320 572,319.5 Q584,319 605,307 Q622,297 639,281.5 Q656,266 659,256 Q666,238 652,215 Q641,200 641,196 Q641,192 625,154 Q607,109 587,58 Q577,29 551,3 Q535,-13 525,-18.5 Q515,-24 498,-26 Q484,-28 470,-22 Q458,-17 444.5,-2 Q431,13 427,24 Q424,34 419,40 Q414,46 408,60 Q402,71 397.5,73.5 Q393,76 383,72 Q358,62 358,73 Q358,77 366,90 Q393,133 373,149 Q366,154 338,154 Q310,154 292,160 Q274,166 269,164 Q264,162 222.5,121 Q181,80 165,75 Q139,65 120,69 Q108,71 87,92.5 Q66,114 66,124 Q66,129 70,127 Q73,126 80,122 Q92,117 100,117 Q120,117 156.5,150 Q193,183 228,233 L260,278 Q320,361 324,372 Q330,387 296,404 Q276,415 256,430 Q235,448 237,453 Q239,458 266,451 Q282,447 314,445 Q346,443 357,446 Q369,450 387,470 Q410,498 402,503 Q399,505 375,490 Q356,479 343.5,476 Q331,473 317,480 Q307,484 303,490 Q299,496 299,509 Q299,522 304.5,533 Q310,544 333,585 Q349,611 364,647.5 Q379,684 383,703 Q388,724 383,736 Q378,748 380,751 M416,338 Q410,351 399.5,346.5 Q389,342 379,324 Q374,315 366,303 Q310,225 315,220 Q317,218 323,220 Q355,228 391,247 Q411,259 415.5,263.5 Q420,268 424,282 Q430,295 425,312 Q420,329 416,338 M545,222 Q545,240 539,241 Q530,242 505,224 Q480,206 468,190 Q459,176 446.5,152.5 Q434,129 430,117 Q424,105 430,98 Q434,90 450,80 Q466,70 476,67.5 Q486,65 492,66 Q498,68 507,83 Q516,98 521,115 Q527,136 532,149 Q547,184 545,222 M396,157 Q396,160 392,160 Q388,160 386,157.5 Q384,155 388,153 Q390,151 393,153 Q396,155 396,157"/> 
            <glyph glyph-name="动" unicode="&#x52A8;" horiz-adv-x="806" d=" M316,456 Q339,463 340.5,463.5 Q342,464 360,457 Q386,446 389,431.5 Q392,417 375,391 Q361,367 361.5,360 Q362,353 379,350 Q390,348 411.5,333.5 Q433,319 437,310 Q443,300 448.5,293 Q454,286 456.5,270.5 Q459,255 453,246.5 Q447,238 439,233.5 Q431,229 408,235.5 Q385,242 378,240 Q371,238 351,222 Q331,206 303.5,187 Q276,168 253,151 Q230,132 217.5,127 Q205,122 193,125 Q173,131 163.5,149.5 Q154,168 158,192 Q164,218 181,234 Q193,244 212,272 Q231,300 237,308 Q246,320 241,322 Q240,322 208,308 Q164,286 134,291 Q117,294 98,319.5 Q79,345 87,354 Q91,358 101.5,351.5 Q112,345 122.5,347 Q133,349 170,366.5 Q207,384 230,399 L270,425 Q289,437 316,456 M334,317 Q327,322 321,317 Q315,312 299,291 Q273,255 283,255 Q287,255 309.5,272 Q332,289 336,294.5 Q340,300 339,307 Q338,314 334,317 M303,567 Q340,580 376,562 Q403,548 391,532 Q382,517 336,511 Q306,507 291,512 Q268,519 242,534.5 Q216,550 216,557 Q216,558 251.5,560 Q287,562 303,567 M537,665 Q541,669 559,661 Q571,656 583.5,652 Q596,648 609,632 Q635,604 639,567 Q641,548 640,538 Q639,528 630,485 Q625,463 635,460 Q639,458 671.5,462.5 Q704,467 714,466 Q741,462 753.5,455 Q766,448 789,423 Q801,411 803.5,406 Q806,401 806,393 Q806,370 794,353 Q774,327 774,315 Q774,306 749,251 L729,209 Q720,191 707.5,174.5 Q695,158 681.5,134 Q668,110 651,93 Q634,76 622,73 Q599,69 579,85 Q571,93 561.5,106 Q552,119 552,126 Q552,131 546,149 Q540,167 535,178 Q529,190 528.5,201 Q528,212 522,213 Q519,215 514.5,210 Q510,205 494,184 Q471,156 461,166 Q457,170 464,192 Q471,214 498,280 Q508,306 506,312 Q504,318 485,320 Q467,322 458,327 Q419,349 419,353 Q419,357 424.5,360.5 Q430,364 452,373 Q471,381 503,401 Q535,421 542,429 Q554,444 562,497 Q571,552 554,583 Q549,594 549,598 Q549,602 542,624 Q531,659 537,665 M687,402 Q682,409 661,399 Q646,392 642,392 Q638,392 627,379.5 Q616,367 605,350 Q578,303 551,265 Q533,239 532,229.5 Q531,220 545,205 Q555,195 570.5,186.5 Q586,178 593,178 Q598,178 603,181 Q607,183 622,206 Q637,229 641,238 Q644,245 659,276 Q678,319 689,363 Q696,392 687,402"/> 
            <glyph glyph-name="助" unicode="&#x52A9;" horiz-adv-x="800" d=" M406,604 Q424,612 432.5,612 Q441,612 455.5,607 Q470,602 475,598 Q485,589 485.5,563 Q486,537 477,516 Q469,500 460,455 Q451,410 446,394 Q440,375 431.5,334.5 Q423,294 424,287 Q425,276 431.5,272 Q438,268 457,267 Q474,266 479.5,262 Q485,258 489,244 Q494,225 464,214 Q451,210 431.5,197 Q412,184 412,181 Q412,178 402.5,171.5 Q393,165 371,164 Q334,162 288,129 Q256,108 225,101 Q178,89 141,104 Q127,109 108.5,119.5 Q90,130 90,133 Q90,144 125,149 Q155,153 195,169 Q235,185 238,194 Q241,198 234,210 Q222,238 220,317.5 Q218,397 227,467 Q231,500 231,505 Q231,510 237,510 Q243,510 247,498 L255,467 Q260,448 263,396 Q266,344 269,340.5 Q272,337 301.5,335.5 Q331,334 339.5,327.5 Q348,321 352,324 Q360,329 365,373 Q368,386 363.5,390.5 Q359,395 338,401 Q318,406 301,415 Q284,424 284,429 Q284,434 287,434.5 Q290,435 302,435 Q320,435 345,429 L369,423 L374,429 Q379,436 391,495 Q394,513 390,519 Q387,522 382.5,521.5 Q378,521 362,515 Q320,501 294,510 Q286,512 277,514 Q270,516 269.5,521 Q269,526 275,527 Q291,531 339.5,558.5 Q388,586 399,596 M290,311 Q274,319 271,314 Q269,311 274.5,277.5 Q280,244 285,233 Q292,213 313,227 Q326,234 330.5,240.5 Q335,247 335,258 Q336,273 342,283 Q348,293 344,297 Q340,301 321,303 Q301,304 290,311 M580,647 Q586,653 592,651.5 Q598,650 612,640 Q642,621 651.5,612.5 Q661,604 667,592 Q683,559 673,491 Q669,462 667,435 Q665,410 668.5,404.5 Q672,399 688,402 Q725,409 747,398 Q762,391 774.5,378.5 Q787,366 787,359 Q787,352 793,336 L800,321 L793,303 Q786,286 782.5,273 Q779,260 766,228 Q753,196 743.5,173 Q734,150 732,147.5 Q730,145 727,133 Q713,90 674,50 Q657,32 651,28 Q645,24 636,23 Q609,19 593.5,31 Q578,43 578,70 Q578,78 574,88 Q570,98 568.5,111.5 Q567,125 560,139 Q553,153 551,165 Q548,184 534,182 Q529,181 509,162 Q481,137 470,141 Q465,143 467,150 Q469,157 481,176 Q500,206 513.5,236 Q527,266 527,275 Q527,280 521,283.5 Q515,287 507,287 Q496,287 480,293 Q464,299 455,308 Q447,313 446.5,315 Q446,317 449,320 Q455,325 471,330 Q523,344 552,364 Q573,379 573,396 Q573,403 578,412 Q586,424 590,458 Q591,474 593,477 Q596,482 594,519.5 Q592,557 589,565 Q585,575 577.5,596 Q570,617 573,629 Q576,641 580,647 M710,352 Q700,360 677,352 Q644,341 637,312 Q634,297 623.5,286 Q613,275 603,256 Q593,237 577,221 Q564,206 563.5,200.5 Q563,195 573,179 Q580,167 596.5,152 Q613,137 620,135 Q634,129 648,148 Q662,167 682,217 Q715,306 715,340 Q715,348 710,352"/> 
            <glyph glyph-name="包" unicode="&#x5305;" horiz-adv-x="759" d=" M217,726 Q220,735 247,719 Q270,706 275,691 Q280,676 274,642 Q270,623 262,595.5 Q254,568 250,558 Q247,553 251,548.5 Q255,544 272,553 Q289,562 299,566 Q309,570 332.5,583 Q356,596 363,598 Q371,601 400,616 Q429,631 436,636 Q445,642 461,650 Q494,663 526,641 Q544,630 547,623 Q557,600 549,570 Q534,515 530,483 Q522,429 515,408 Q510,391 506,359 Q494,276 483,263 Q480,258 467.5,252.5 Q455,247 448,247 Q426,247 405,272 Q391,289 385,289 Q379,289 359,260 Q346,239 326,215.5 Q306,192 300,188 Q295,186 287,190.5 Q279,195 271,195 Q265,195 259,191 Q253,187 253,183 Q253,180 235,161 Q222,147 219,137.5 Q216,128 221,116 Q223,110 225,102 Q231,74 338,74 Q376,73 426.5,79 Q477,85 504,92.5 Q531,100 544.5,102.5 Q558,105 570,110.5 Q582,116 606,124 Q663,142 670,158 Q678,183 663,218 Q654,246 659,246 Q669,244 710,203 Q726,188 736,181 Q759,167 753,144 Q749,126 739.5,115.5 Q730,105 719,105 Q714,105 711.5,102.5 Q709,100 682.5,95 Q656,90 645.5,81.5 Q635,73 625,71.5 Q615,70 606.5,65 Q598,60 582,56.5 Q566,53 548,43 Q530,33 524,33 Q518,33 504,26 Q490,19 464.5,16 Q439,13 419,10 Q392,7 336,5 Q280,3 259,7 Q201,14 168,45 Q158,56 154,62.5 Q150,69 145,85 Q132,128 138,155 Q141,169 137,179.5 Q133,190 139,199.5 Q145,209 145,218 Q145,227 155.5,238.5 Q166,250 166,255 Q166,260 172.5,271.5 Q179,283 181,300 Q183,322 187.5,327.5 Q192,333 202,327 Q209,324 224.5,308.5 Q240,293 243,287 Q248,279 250,279 Q255,279 269.5,293 Q284,307 289,318 Q297,332 305,344 Q319,365 304,365 Q295,365 270,358 Q255,354 230.5,355 Q206,356 189,362 Q177,367 164,377.5 Q151,388 151,395 Q151,400 178,398.5 Q205,397 241,405.5 Q277,414 308.5,425 Q340,436 350,434 Q359,431 374,424.5 Q389,418 395,412 Q411,399 407,373 Q405,360 409,354 Q413,348 420,350 Q426,352 428,357 Q435,374 446,441 Q456,495 456,510 Q456,524 458,539 Q464,568 450,573 Q444,574 424,566 Q404,558 395,550 Q386,542 370.5,534.5 Q355,527 338,513 Q311,494 257.5,472 Q204,450 181,450 Q169,450 159.5,458 Q150,466 149,484 Q148,502 151,513 Q154,524 163,538 Q175,556 194,593.5 Q213,631 218,645 Q223,660 223.5,680.5 Q224,701 220,711 Q215,721 217,726"/> 
            <glyph glyph-name="发" unicode="&#x53D1;" horiz-adv-x="779" d=" M443,721 Q444,725 447,726 Q450,727 460,725 Q490,721 512,699 Q522,687 524,683 Q526,679 526,664 Q526,649 522.5,636 Q519,623 503,587 Q490,553 472,517 Q462,495 466,492.5 Q470,490 495,503 Q520,516 525.5,516 Q531,516 539,524 Q544,529 544.5,533 Q545,537 544,553 Q542,577 546,579 Q553,581 576,570.5 Q599,560 614,548 Q635,531 638,521 Q641,511 641,468 Q641,426 639,418 Q637,410 623,403 Q598,391 569,428 Q556,444 549.5,445.5 Q543,447 513,432.5 Q483,418 480,418 Q477,418 472.5,413 Q468,408 448,399 Q411,381 397,345 Q392,332 381,316 Q372,301 372.5,295 Q373,289 382,288 Q405,286 481,343 Q496,355 504,357 Q518,361 534,348.5 Q550,336 553,320 Q557,298 554,260.5 Q551,223 544,199 Q535,170 535,166.5 Q535,163 544.5,154.5 Q554,146 581.5,135 Q609,124 631,120 Q649,116 666.5,112 Q684,108 701,105 Q736,100 764,74 Q778,63 778.5,57.5 Q779,52 767,39 Q756,27 746.5,23 Q737,19 717,17 Q702,16 693.5,17.5 Q685,19 666,26 Q636,36 631.5,36 Q627,36 591,55 L525,89 Q493,105 486,105 Q479,105 455,94 Q439,85 431.5,83 Q424,81 409,81 Q393,81 383.5,83.5 Q374,86 361,97 Q353,103 353,107.5 Q353,112 361,113 Q379,115 404,134.5 Q429,154 429,165 Q429,171 409.5,194 Q390,217 390,221 Q390,231 425,211 Q445,200 452.5,198.5 Q460,197 465,203 Q477,216 484.5,243 Q492,270 487,276 Q482,280 451,266 Q412,247 396.5,245 Q381,243 368,255 Q360,265 357,265 Q355,265 335.5,235.5 Q316,206 312,197 Q309,190 287.5,157 Q266,124 255,111 Q246,98 235,79 Q224,60 204,35 Q172,-5 147,-5 Q139,-5 129.5,4 Q120,13 115,24 Q110,38 114,54.5 Q118,71 128,71 Q134,71 151,89.5 Q168,108 188,132 Q221,178 230,197 Q238,213 247.5,228.5 Q257,244 266,257 L288,296 Q301,319 299,323.5 Q297,328 275,322 Q235,312 225,323 Q220,328 215,346 Q210,364 210,376 Q210,392 230,436 Q250,480 279,529 Q301,567 311,588 Q321,609 326,610 Q336,614 344.5,600.5 Q353,587 354,565 Q356,536 332,490 Q321,465 313.5,442.5 Q306,420 310,415.5 Q314,411 326,417 Q346,427 357.5,440 Q369,453 381,478 Q413,540 436,598.5 Q459,657 459,676 Q459,682 450,699 Q441,716 443,721"/> 
            <glyph glyph-name="后" unicode="&#x540E;" horiz-adv-x="719" d=" M635,276 Q654,279 681,261 Q710,242 716,222 Q719,209 712,195.5 Q705,182 688,169 Q668,154 663.5,142 Q659,130 667,112 Q670,105 669.5,103 Q669,101 665,97 Q657,92 636.5,87 Q616,82 595,71 Q572,61 560.5,61 Q549,61 531,73 Q506,89 507.5,101.5 Q509,114 540,144 Q568,171 568,174 Q568,176 563,177 Q558,178 551.5,177 Q545,176 540,174 Q531,171 495,170 Q453,168 445,161.5 Q437,155 451,132 Q468,105 457,88 Q452,81 436,81.5 Q420,82 411,89 Q386,108 369,179 Q364,195 374,195 Q378,195 391,187 Q404,179 409,173 Q414,167 421.5,170 Q429,173 443,188 Q474,220 554,248 Q590,260 606,267 Q622,274 635,276 M560,418 Q593,435 601,435 Q616,435 631,424 Q646,413 646,402 Q646,394 636,384 Q626,374 613,369 Q598,363 576,353 Q554,343 537.5,338 Q521,333 496,322 Q456,304 423,312 Q397,318 387,326.5 Q377,335 377,351 Q377,368 397,362 Q415,358 458,372 Q491,383 560,418 M469,636 Q472,647 486.5,647 Q501,647 514,641 Q533,635 554.5,614.5 Q576,594 576,583 Q576,575 563,556.5 Q550,538 538,531 Q526,524 512,508 Q485,482 463,482 Q453,482 443,472 Q426,455 397,456 Q383,456 377.5,452.5 Q372,449 372,440 Q372,419 353,425 Q345,429 340,427 Q337,426 330,419 Q323,412 323,410 Q323,409 330,396 Q353,349 345,269 Q341,227 325,170.5 Q309,114 295,89 Q278,62 248,36 Q218,10 202,10 Q191,10 183,18.5 Q175,27 174,39 Q173,59 176.5,68 Q180,77 195,90 Q228,120 250.5,173.5 Q273,227 278,289 Q284,343 273,381 Q267,402 265,426 Q263,455 275,496 Q276,502 282,501 Q288,500 289,494 Q302,439 315,434 Q319,432 329.5,433.5 Q340,435 342,437 Q343,438 343.5,451.5 Q344,465 351,469.5 Q358,474 372,487.5 Q386,501 388.5,501 Q391,501 396.5,512.5 Q402,524 412.5,531.5 Q423,539 451,572 Q473,597 476.5,606.5 Q480,616 474,628"/> 
            <glyph glyph-name="呈" unicode="&#x5448;" horiz-adv-x="711" d=" M530,435 Q553,440 568.5,437 Q584,434 584,425 Q584,418 567,408 Q539,392 504,357 Q490,344 488,330 Q486,311 494,305 Q502,299 520,307 Q549,317 578.5,302 Q608,287 604,265 Q603,257 589,234.5 Q575,212 562,195 Q554,185 557.5,179 Q561,173 572,175.5 Q583,178 622,182 Q691,189 705,167 Q711,158 704.5,150.5 Q698,143 684,143 Q676,143 665.5,139 Q655,135 647,135 Q626,135 568,118 Q553,114 539,111 Q512,107 468.5,91 Q425,75 412,66 Q403,59 382,52 Q361,45 336.5,36 Q312,27 285,26 Q266,26 260,27.5 Q254,29 237,38 Q216,51 197,68 Q185,78 182.5,82 Q180,86 183,89 Q186,94 204.5,94 Q223,94 238,97 Q289,107 313,115 Q325,120 334,120 Q351,120 379,133.5 Q407,147 417,160 Q423,168 425,180.5 Q427,193 424,197 Q421,201 398,202 Q354,202 330,234 Q315,254 323,261 Q327,265 334,261 Q353,251 401,266 Q426,273 434,280.5 Q442,288 444,304 Q446,322 442,325 Q438,328 421,324 Q402,319 386,321 Q373,323 350,328 Q327,333 321,337 Q310,342 322,346 Q324,348 327,348 Q348,350 384,362 Q420,374 433,384 Q444,393 468.5,407.5 Q493,422 504,426 Q517,432 530,435 M568,669 Q582,672 588.5,671.5 Q595,671 610,665 Q649,652 649,627 Q648,610 635.5,592 Q623,574 606,563 Q583,550 552,520 Q545,513 545.5,503.5 Q546,494 542.5,490.5 Q539,487 525,479 Q471,448 440,440 Q412,432 407,425 Q394,409 390,406 Q386,403 374,403 Q351,403 333,422 Q317,439 297,492 Q283,526 282.5,551 Q282,576 290,585 Q302,601 312,586 Q317,578 337.5,555 Q358,532 371,503 Q385,477 395,473.5 Q405,470 425,488 Q439,500 461.5,527.5 Q484,555 484,560 Q484,565 449,557 Q428,553 416,555 Q404,557 383,564.5 Q362,572 359,576 Q355,580 357.5,584 Q360,588 367,588 Q384,588 431.5,607 Q479,626 533,655 Q556,667 568,669"/> 
            <glyph glyph-name="员" unicode="&#x5458;" horiz-adv-x="625" d=" M509,718 Q520,720 539,717.5 Q558,715 566,710 Q586,699 586,676 Q586,662 581,654 Q573,638 529,590 Q495,552 495,536 Q495,529 487.5,522.5 Q480,516 469,514 Q459,512 434.5,501 Q410,490 400,489 Q347,480 351,465 Q352,464 353,463 Q362,451 364,401 Q366,365 371.5,362 Q377,359 385,369 Q398,385 429.5,411.5 Q461,438 478,446 Q488,450 504,458 Q520,466 544,474 Q561,481 566,481 Q571,481 582,478 Q609,469 617,457 Q625,445 625,413 Q625,384 615,350 Q608,325 594,293 Q580,261 572,249 Q567,242 561,228 Q554,210 534,182 Q514,154 506,149 Q494,142 487.5,143.5 Q481,145 471,156 Q459,169 453,169 Q446,169 433,145 Q424,128 443,124 Q466,119 531,87 Q544,81 560.5,68 Q577,55 582,46 Q588,39 592,22 L596,3 L588,-6 Q575,-19 546,-9 Q528,-3 506,14.5 Q484,32 437,78 Q412,103 407.5,101.5 Q403,100 384,75 Q368,55 362,50.5 Q356,46 350,50 Q345,54 339,54 Q334,54 323.5,63 Q313,72 313,76.5 Q313,81 322.5,98.5 Q332,116 339,125 Q356,148 387.5,198 Q419,248 423,259 Q426,269 429,286 Q432,303 435,315.5 Q438,328 434.5,331.5 Q431,335 404,308 Q364,266 342,210 Q332,184 322,181.5 Q312,179 293,197 Q278,211 271.5,232 Q265,253 269,266 L279,304 L306,399 Q324,465 324,471.5 Q324,478 311,490 Q279,521 271,560 Q267,583 266,623 Q265,663 269,669 Q273,675 285,669.5 Q297,664 308,652 Q318,640 321.5,638.5 Q325,637 334,639 Q346,640 422,678 Q498,716 509,718 M424,612 Q422,616 390,610 Q369,607 354,610 Q339,613 335.5,610 Q332,607 336,596 Q340,587 346,568 Q350,556 352.5,552 Q355,548 360.5,549 Q366,550 373,556.5 Q380,563 395,578 Q426,609 424,612 M551,409 Q552,426 532,415 Q528,413 524,410 Q469,372 469,368 Q469,365 478,355 Q485,348 486.5,342.5 Q488,337 489,316 Q489,307 489.5,301.5 Q490,296 490.5,292.5 Q491,289 491.5,288.5 Q492,288 494,288 Q502,289 525.5,340.5 Q549,392 551,409"/> 
            <glyph glyph-name="善" unicode="&#x5584;" horiz-adv-x="773" d=" M494,738 Q522,746 559,729 Q575,722 579.5,718 Q584,714 588,706 Q594,693 590.5,679 Q587,665 575,635 Q563,610 564,603 Q565,596 579,591 Q588,587 589.5,581 Q591,575 584.5,569.5 Q578,564 564,559 Q550,554 528.5,542.5 Q507,531 499,523 Q481,505 493,496 Q498,492 512,495 Q550,504 561,493 Q567,487 567,485 Q567,476 537,456 Q516,442 502,428 Q492,419 491,416.5 Q490,414 493,411 Q498,406 504,408 Q538,418 552,416 Q560,414 566.5,408 Q573,402 573,395 Q573,379 546,363 Q535,357 535.5,349 Q536,341 547,327 L559,314 L579,315 Q597,317 607.5,321.5 Q618,326 636.5,328 Q655,330 661,336 Q665,341 670,341.5 Q675,342 696,341 Q727,339 742,333 Q759,326 766,313 Q773,300 764,293 Q759,287 742,282.5 Q725,278 713,278 Q658,279 610,278 Q593,277 582.5,272.5 Q572,268 550,251 Q537,241 525,226.5 Q513,212 511,205 Q511,201 514,200 Q517,199 533,200 Q554,200 567.5,205.5 Q581,211 595.5,213 Q610,215 629,206 Q679,182 652,144 Q642,129 636.5,119 Q631,109 617,98 Q593,81 593,67 Q593,63 597,55 Q601,47 599.5,42 Q598,37 589.5,28.5 Q581,20 563,15 Q545,10 533,5 Q499,-5 482,2 Q457,14 451,33 Q448,47 455.5,57 Q463,67 499,92 Q510,101 512.5,105 Q515,109 523.5,118 Q532,127 529,131 Q521,139 505,128 Q496,123 484.5,119.5 Q473,116 466,112 Q454,104 389,101 Q358,100 353.5,96 Q349,92 361,71 Q370,56 376,34.5 Q382,13 379,7 Q374,-2 351,-2 Q346,-2 338,6.5 Q330,15 330,21 Q330,26 323,37 Q312,52 310,84.5 Q308,117 317,125 Q321,129 333,123 L345,116 L363,126 Q380,138 382,141 Q384,144 361,154 L338,164 L323,159 Q308,154 296,149 Q214,114 178,132 Q164,141 142.5,158.5 Q121,176 121,181 Q121,185 126,185.5 Q131,186 157,185 Q220,181 254,199 Q267,206 284,210 Q304,216 307,221.5 Q310,227 309,249 Q308,259 300.5,268.5 Q293,278 268,298 Q248,315 249.5,318.5 Q251,322 279,322 Q300,321 307.5,322.5 Q315,324 333,332 Q358,342 365,344 Q372,345 378.5,351.5 Q385,358 384,362 Q383,367 363,373 Q318,388 311,415 Q309,423 314.5,426 Q320,429 337,428 Q358,428 379,440 Q411,457 414,472 Q415,478 410,480 Q405,482 391,479 Q366,472 325.5,480.5 Q285,489 274,501 Q266,509 271,513 Q276,517 292,520 Q314,522 327,524.5 Q340,527 348.5,530 Q357,533 359.5,536.5 Q362,540 360,544 Q359,549 353,577 Q347,605 328,642 Q309,681 313,684 Q317,687 354,668 Q391,650 404,635 Q417,620 425,586 Q429,571 434,568 Q439,565 451,571 Q466,579 478,598 Q485,607 494,636.5 Q503,666 505,679 Q507,690 505,693.5 Q503,697 492,708 Q476,723 477.5,728 Q479,733 494,738 M471,302 Q469,314 460,308 Q456,306 435.5,297.5 Q415,289 406,281 Q397,273 385,267 Q380,265 376.5,262 Q373,259 374,257 Q375,254 390,255 Q405,256 414,261 L444,276 Q460,284 466,289.5 Q472,295 471,302 M363,257 Q347,263 347,253 Q347,247 355,247 Q367,247 366,253 Q366,255 363,257 M433,208 Q430,212 425.5,211.5 Q421,211 411,203 L400,195 L402,179 Q403,163 396,154 Q391,147 391,145 Q391,143 397,143 Q406,143 415,150 Q424,157 428,167 Q442,198 433,208"/> 
            <glyph glyph-name="在" unicode="&#x5728;" horiz-adv-x="736" d=" M529,460 Q540,465 562,461 Q584,457 593,449 Q605,439 596,425 Q588,409 588,385 Q588,374 584,368 Q579,360 578,347 Q577,334 581,331 Q585,328 598.5,340 Q612,352 612,354.5 Q612,357 605,365 Q588,384 618,382 Q629,382 649,377 Q683,369 693,358 Q696,355 694.5,352.5 Q693,350 684,341 Q671,330 653,322 Q638,315 613.5,296.5 Q589,278 584,270 Q580,263 580,249 Q580,235 579,233 Q577,230 581,219 Q585,208 588,206 Q593,204 621,211 Q669,224 706,213 Q721,209 727,204.5 Q733,200 734,191 Q736,183 723.5,171.5 Q711,160 705.5,158.5 Q700,157 677,150 L633,137 Q613,131 578,114 Q513,82 487.5,81.5 Q462,81 443,113 Q422,146 430,162 Q440,181 460,181 Q470,181 474,177.5 Q478,174 477,167 Q476,160 480,159 Q484,157 502.5,164 Q521,171 523,175 Q527,181 522.5,185 Q518,189 510,189 Q502,189 502,191 Q502,193 512,204 Q522,215 522,217 Q522,226 500,228 Q470,230 444,255 Q436,264 434.5,266.5 Q433,269 436,272 Q441,277 450,273 Q463,268 485,273.5 Q507,279 518,290 Q524,296 525.5,331.5 Q527,367 531,391 Q535,417 534.5,421 Q534,425 525,428 Q514,431 513,439 Q512,452 529,460 M449,730 Q453,736 467,727 Q478,721 489.5,721 Q501,721 516,711 Q544,693 550.5,679 Q557,665 547,649 Q539,637 539,634 Q539,631 531,611 Q515,577 528,578 Q532,578 539,584 Q545,589 551,590 Q557,591 580,591 Q630,592 640,573 Q646,564 637.5,557 Q629,550 596,534 Q556,514 526.5,491 Q497,468 492,453 Q490,446 471,408.5 Q452,371 441,352 Q426,327 416,297 Q407,274 406,261.5 Q405,249 406,160 Q408,84 391,45 Q377,17 364.5,16 Q352,15 340,41 Q335,52 334.5,58.5 Q334,65 337,86 Q340,115 344.5,136.5 Q349,158 345,164 Q342,168 340.5,167.5 Q339,167 333,160 L310,132 L287,104 Q258,68 212,37 Q190,22 180.5,22 Q171,22 163,36 Q155,48 155,53 Q154,61 198,109 Q265,183 277,213 Q281,224 296,245 Q323,285 320,299 Q317,308 304,332 Q274,386 312,360 Q316,357 321,354 Q340,339 347,340.5 Q354,342 366,366 Q377,389 377,398 Q377,411 356,416 Q337,421 314.5,438 Q292,455 283,471 Q277,484 282,485 Q283,485 286,483 L297,474 Q314,463 341.5,471 Q369,479 398,503 Q416,519 424.5,529.5 Q433,540 442,563 Q454,590 465.5,629.5 Q477,669 476,677 Q475,682 464.5,689 Q454,696 451,704 Q448,710 447.5,719 Q447,728 449,730"/> 
            <glyph glyph-name="地" unicode="&#x5730;" horiz-adv-x="835" d=" M483,683 Q483,693 491,691.5 Q499,690 515.5,688 Q532,686 546.5,678 Q561,670 565.5,660 Q570,650 572.5,605 Q575,560 574,559 Q573,557 572.5,542.5 Q572,528 572,523 Q573,512 598,522 Q647,540 681,502 Q700,480 703,466 Q706,452 692,441 Q682,432 669,417 Q645,384 630.5,369.5 Q616,355 581,327 Q572,320 567,318 Q562,316 552,316 Q535,316 525,322 Q515,328 508,327.5 Q501,327 488,321 Q473,314 459.5,312.5 Q446,311 443,309.5 Q440,308 440,290 Q440,272 443,261 Q450,237 488,224 Q524,211 612,221 Q687,228 720,250 Q732,258 734,258 Q736,258 752,274 Q778,298 775,332 Q773,349 776,350 Q779,352 783,347.5 Q787,343 788,336 Q790,327 799,312 Q808,297 815,290 Q835,271 832,245 Q830,224 824,215 Q818,206 800,197 Q770,181 695,170 Q685,169 670,166 Q643,160 585,158 Q527,156 502,160 L468,166 Q448,169 429.5,182 Q411,195 401,212 Q390,231 386,248 Q382,265 382,296 Q382,325 380,332 Q378,339 369,339 Q356,339 352,325 Q350,318 334.5,287.5 Q319,257 316,247 Q313,235 284,197 Q275,185 266,168 Q258,153 250.5,146.5 Q243,140 224,130 Q198,117 181.5,121 Q165,125 140,149 Q126,162 128,167.5 Q130,173 149,176 Q167,179 172.5,181.5 Q178,184 196,198 Q215,210 215,215.5 Q215,221 207,235.5 Q199,250 201,262.5 Q203,275 203,290 Q205,301 203.5,304 Q202,307 196,308 Q188,308 180,303 Q153,290 123,297 Q110,300 86,312 Q62,324 59,329 Q55,335 65,335 Q69,335 74,333 Q87,330 115.5,339.5 Q144,349 169,366 Q211,395 213,407 Q220,442 222,474 Q223,500 227,524 Q240,597 240,622 Q240,631 233,641 Q223,657 228,662.5 Q233,668 253,662 Q283,652 296,634 Q302,625 300.5,606.5 Q299,588 296,582 Q292,576 283,521 Q274,452 279,447 Q283,443 291,447.5 Q299,452 304,461 L308,471 L337,472 Q365,473 373.5,468 Q382,463 382,461.5 Q382,460 373,446 Q360,425 316,404 Q285,387 274,366 Q270,359 267,336 Q264,313 264,294 Q264,276 268,272 Q272,268 278,272 Q284,276 315,307 Q345,335 345,341.5 Q345,348 330,359 Q307,378 315,386 Q318,389 339,391 Q373,392 391,410 Q397,418 400,445 Q402,464 401.5,470 Q401,476 397,486 Q386,507 397,513 Q402,516 409,511 Q416,507 426,505 Q435,503 441.5,493.5 Q448,484 448,473 Q448,462 454,457 Q458,453 461,453.5 Q464,454 473,460 Q500,481 507,508 Q516,553 517.5,574 Q519,595 519,634 Q518,645 516,650 Q514,655 500,667 M608,464 Q596,479 577,469 Q570,464 565.5,457 Q561,450 550,425 Q532,387 525,373 Q515,353 525,354 Q540,357 565,392 Q568,397 571,402"/> 
            <glyph glyph-name="基" unicode="&#x57FA;" horiz-adv-x="754" d=" M445,790 Q451,797 474,790.5 Q497,784 513,769 Q522,761 522.5,754.5 Q523,748 518,734 Q512,720 508,696 Q504,675 505.5,669.5 Q507,664 516,664 Q524,664 534,659.5 Q544,655 544,652 Q544,648 523,637.5 Q502,627 498,618 Q494,609 490,535.5 Q486,462 484,447 Q483,428 485.5,411 Q488,394 493,388 Q500,382 510,385 Q518,387 535.5,385 Q553,383 557,379 Q573,367 523,333 Q501,319 497,312 Q488,292 501,278 Q508,269 543,259.5 Q578,250 610,248 Q694,243 739,225 Q754,218 750,202 Q748,196 731.5,189.5 Q715,183 696,182 Q678,181 641,179 Q613,178 605,179 Q597,180 579,185 Q552,195 517,218 L498,231 Q488,238 470.5,241.5 Q453,245 437,255 Q421,266 414.5,268 Q408,270 403,267 Q392,258 414,247 Q426,241 439,228.5 Q452,216 465.5,210 Q479,204 484,197 Q487,192 487,189 Q487,186 483,178 Q477,164 462.5,146 Q448,128 448,125 Q448,114 478,114 Q498,114 511,109 Q535,98 533.5,81 Q532,64 506,53 L468,37 L434,23 Q391,4 372,9 Q357,11 332.5,37.5 Q308,64 311,72 Q313,77 334,75 Q352,73 356.5,76.5 Q361,80 361,95 Q361,107 356.5,113.5 Q352,120 338.5,126.5 Q325,133 317.5,128 Q310,123 291,96 Q269,64 230.5,24 Q192,-16 173,-26 Q149,-39 146,-27 Q145,-23 140.5,-10 Q136,3 141,11.5 Q146,20 151,24.5 Q156,29 167,43.5 Q178,58 199,80 Q228,112 253,148.5 Q278,185 277,192 Q276,196 248,197 Q204,198 176,223 Q162,236 165.5,240 Q169,244 193,242 Q210,241 216,242.5 Q222,244 240,252 Q266,265 289,278.5 Q312,292 315,296 Q318,301 313,312 Q297,352 287.5,402.5 Q278,453 282,480 Q284,492 282.5,509 Q281,526 276,533 Q274,536 259,543 Q247,549 231,562.5 Q215,576 210,584 Q207,590 205,599 Q203,609 207,612 Q211,615 223,612 Q271,600 280,606 Q284,608 285,614.5 Q286,621 286,649 Q286,680 288.5,688 Q291,696 299.5,696 Q308,696 329,678.5 Q350,661 357,648 Q361,639 361,626 Q361,611 366.5,607.5 Q372,604 388,607 Q405,610 419,622 Q431,633 434.5,644 Q438,655 443,693 Q449,741 449.5,754.5 Q450,768 446,777 Q441,785 445,790 M428,562 Q428,581 423.5,582 Q419,583 394,569 Q376,557 368.5,548 Q361,539 361,526 Q361,517 367,513 Q373,509 394,502 Q414,495 419,498 Q424,501 426,521 Q428,541 428,562 M393,469 Q380,472 375,473 Q368,476 364.5,471.5 Q361,467 361,456 Q361,443 367.5,436.5 Q374,430 391,429 Q407,428 413,431.5 Q419,435 419,446 Q419,464 393,469 M416,392 Q407,399 396,392 Q392,388 384,388 Q373,388 368.5,381.5 Q364,375 363,358 Q362,337 367,332 Q372,327 385,330 Q396,334 407,345 Q416,353 417.5,357 Q419,361 419,372 Q419,387 416,392 M366,225 Q363,230 360,230 Q356,230 351.5,223.5 Q347,217 347,213 Q347,210 340.5,197.5 Q334,185 328.5,170 Q323,155 324,152 Q330,148 338,151.5 Q346,155 355.5,165 Q365,175 367,185 Q374,212 366,225"/> 
            <glyph glyph-name="好" unicode="&#x597D;" horiz-adv-x="764" d=" M544,592 Q547,597 552.5,597 Q558,597 565.5,581.5 Q573,566 577,563 Q588,556 644,572 Q671,580 689,577 Q720,573 730,552 Q745,522 688,458 Q671,438 671,426 Q671,411 689,399 Q697,394 720,393 Q762,393 763,374 Q764,366 753,358 Q742,350 728,336 Q718,327 716,323 Q714,319 714,306 Q714,288 717,280 Q722,264 724,188 Q726,114 714,63 Q708,38 700,33.5 Q692,29 656,28 Q598,27 574,37.5 Q550,48 553,73 Q558,115 563,116 Q565,116 574,108 Q590,93 619,99 Q649,105 657.5,128.5 Q666,152 664,229 Q663,292 661,296 Q658,303 649.5,302.5 Q641,302 621,295 Q594,285 585.5,283 Q577,281 557,272 Q539,263 529.5,262 Q520,261 510,271 Q494,284 489,311 Q486,323 486.5,327 Q487,331 492,340 Q498,352 504.5,353.5 Q511,355 522,345 Q539,331 566,341 Q580,345 592,349 Q602,351 619,360 Q636,369 638,373 Q641,380 620,409 Q609,422 610.5,435 Q612,448 628,477 Q644,506 641,511 Q637,520 614,510 Q584,499 558,510 Q526,525 539,574 M343,617 Q350,626 353,626 Q359,626 376,615.5 Q393,605 403.5,595 Q414,585 416.5,580 Q419,575 422,562 Q424,548 423.5,542.5 Q423,537 418,524 Q411,507 412.5,500.5 Q414,494 426,492 Q452,487 475,455 Q489,438 489,424 Q489,413 479.5,390.5 Q470,368 457,350 Q448,336 448,332 Q448,328 435,302 Q422,277 424.5,271 Q427,265 452,257 Q475,250 496,239 Q515,229 516.5,222.5 Q518,216 505,208 Q484,197 421,198 Q389,198 374,189.5 Q359,181 311,133 Q261,83 242,74 L221,64 L200,67 Q162,73 165,83 Q166,86 172,87 Q178,88 188,99 Q198,110 220,129 Q239,147 264,181.5 Q289,216 289,226 Q289,238 275,255 Q267,263 262,277.5 Q257,292 257,302 Q257,310 252.5,314 Q248,318 243,314 Q235,308 218,300.5 Q201,293 195,293 Q183,293 174,298 Q165,303 148,319 Q122,341 129,344 Q133,346 149,345 Q160,345 180,353 L232,371 Q263,382 274,389 Q290,403 303,445 Q306,457 314,466.5 Q322,476 324,493 Q326,510 329,513.5 Q332,517 341,552 Q347,576 347.5,583.5 Q348,591 346,601 M406,462 Q397,480 385,452 Q377,434 379,424 Q381,418 379,412.5 Q377,407 367,391 Q352,367 344,350.5 Q336,334 330,325.5 Q324,317 324,300 Q324,289 325,287 Q326,285 330,285 Q347,285 382,369 Q398,405 401,420 Q402,427 405.5,441 Q409,455 406,462"/> 
            <glyph glyph-name="完" unicode="&#x5B8C;" horiz-adv-x="781" d=" M412,357 Q452,385 459,385 Q467,385 482.5,381 Q498,377 502,374 Q507,370 511,361.5 Q515,353 513,348 Q511,337 500.5,324.5 Q490,312 479,304 Q464,294 450.5,282 Q437,270 437,267 Q437,263 447,249 Q459,231 462.5,219 Q466,207 463,190 Q460,170 458,145.5 Q456,121 452,111.5 Q448,102 448,96 Q448,89 454.5,83 Q461,77 471,74 Q487,69 528,71.5 Q569,74 598,82 Q620,88 638,93 Q672,99 684,118.5 Q696,138 684,166 Q675,189 680.5,192 Q686,195 707,180 Q724,166 729.5,160.5 Q735,155 750,150 Q781,139 781,119 Q781,110 773.5,94.5 Q766,79 760,75 Q752,70 711,55 Q670,40 651,36 Q627,30 614,26 Q587,18 541,16.5 Q495,15 458,21 Q417,29 400.5,37.5 Q384,46 374,65 Q366,80 367.5,97 Q369,114 382,155 Q389,175 392.5,186.5 Q396,198 397.5,205.5 Q399,213 398.5,215.5 Q398,218 396,218 Q393,218 357,184 Q322,149 310.5,139 Q299,129 282,117 Q262,104 255,96 Q248,88 244,88 Q239,88 226,97.5 Q213,107 213,111 Q213,116 247,150 Q272,174 290,198.5 Q308,223 305,227 Q304,230 297,230 Q281,230 246,213 Q223,203 204.5,219 Q186,235 189,264 Q190,280 198,286.5 Q206,293 223,309 Q240,325 243,325 Q246,325 227,291 Q223,285 223,283 Q223,281 226.5,277 Q230,273 233.5,273 Q237,273 250,277 Q270,282 290.5,292 Q311,302 321.5,306.5 Q332,311 356,326 Q380,341 412,357 M376,448 Q392,455 396,455 Q404,455 417,449.5 Q430,444 432,439 Q439,422 422,413 Q415,410 386.5,402.5 Q358,395 350,395 Q342,395 335,391 Q319,381 316,392 Q314,398 303,404 Q281,416 288,423 Q291,426 300,424 Q307,423 332,431 Q357,439 376,448 M136,533 Q139,541 144.5,541.5 Q150,542 154,534 Q158,526 169,512 Q197,479 195,452 L191,403 Q189,370 184,362 Q175,349 151,349 Q142,349 132,358.5 Q122,368 116,384 Q109,403 110,416.5 Q111,430 123,467 Q127,480 130,502 Q133,524 136,533 M594,635 Q614,638 640,626 Q670,613 676.5,598 Q683,583 669,563 Q649,536 624,528 Q609,523 592,513 Q560,495 539,499 Q526,502 524.5,505.5 Q523,509 537.5,529.5 Q552,550 558,562 Q564,574 567,576 Q570,578 569.5,583.5 Q569,589 565,590 Q560,592 533.5,586.5 Q507,581 491,574 Q471,566 467,566 Q463,566 436,547.5 Q409,529 400.5,525.5 Q392,522 376.5,511.5 Q361,501 337.5,494 Q314,487 286,489 Q244,491 219,509 Q210,515 207,519 Q204,523 206,525.5 Q208,528 215,529 Q222,530 236,531 Q265,533 277,536 Q321,548 366,573 Q395,587 439.5,603.5 Q484,620 507,623 L555,630 M300,723 Q300,730 322,721 Q343,712 410,701 Q445,696 456,672 Q462,660 462,654.5 Q462,649 455,640 Q443,627 399,624 Q381,623 376.5,626 Q372,629 376,638 Q379,645 376,650 Q373,655 361,661 Q350,666 339,676 Q328,685 314,702 Q300,719 300,723"/> 
            <glyph glyph-name="实" unicode="&#x5B9E;" horiz-adv-x="767" d=" M438,159 Q439,162 446.5,162.5 Q454,163 482,162 Q589,158 650,139 Q673,131 690,128 Q702,126 708.5,121.5 Q715,117 732,100 Q757,75 762,61 Q767,47 763,42 Q759,39 753.5,40 Q748,41 725,50 Q715,54 704,54 Q696,54 674.5,63.5 Q653,73 635,86 Q624,94 616,94 Q608,94 597.5,99.5 Q587,105 577.5,107 Q568,109 553,114 Q520,126 475,136 Q443,143 438,151 Q436,154 438,159 M268,457 Q272,461 274,460.5 Q276,460 288,455 Q301,450 321,448 Q361,445 379,429 Q385,424 386.5,421 Q388,418 386,411 Q382,388 355,389 Q340,389 323,392 Q311,393 306.5,395.5 Q302,398 293,408 Q280,422 272.5,437.5 Q265,453 268,457 M405,524 Q428,534 462,505 Q469,499 471.5,489 Q474,479 474,447 Q475,405 467,370 Q458,324 463,321 Q468,318 502,332 Q531,345 543,345 Q548,345 551.5,342 Q555,339 555,334 Q555,329 536.5,313 Q518,297 502,289 Q465,272 450,250.5 Q435,229 418,166 Q411,142 405.5,134.5 Q400,127 384,94 Q368,63 354.5,48 Q341,33 322,26 Q287,12 252,20 Q229,25 220,35 Q212,43 211.5,47 Q211,51 219,52 Q239,56 259,69 L289,87 Q313,104 330,139 Q339,158 336,162.5 Q333,167 330.5,166.5 Q328,166 304,157 Q276,147 256.5,149.5 Q237,152 219,168 Q206,182 202.5,198 Q199,214 201.5,225.5 Q204,237 216,255 Q227,274 233.5,275.5 Q240,277 247,264 Q267,228 279,225 Q287,224 308,231.5 Q329,239 346,250 Q361,259 369,271 Q377,283 375,291 Q373,296 370.5,296 Q368,296 358,291 Q333,279 295.5,300.5 Q258,322 255,353 Q251,387 299,373 Q346,359 375,338 Q381,333 385.5,337.5 Q390,342 390,351.5 Q390,361 394,378 Q408,434 413,485 Q414,497 413,500 Q412,503 406,506 Q387,516 405,524 M171,544 Q179,554 186,539 Q192,530 197.5,467.5 Q203,405 201,389 Q200,378 195.5,374.5 Q191,371 174,367 Q158,363 151,365.5 Q144,368 134,382 Q126,393 125,418 Q124,443 131,458.5 Q138,474 138,477 Q138,479 153.5,510 Q169,541 171,544 M303,716 Q341,720 368,707 Q385,699 403.5,683 Q422,667 426,655 Q432,640 439.5,638 Q447,636 470,640 Q496,647 535.5,650 Q575,653 588,654 Q603,656 623,648.5 Q643,641 654,630 Q665,619 667,612.5 Q669,606 663,596 Q654,583 593,553 Q568,542 556.5,540 Q545,538 538,545 Q533,551 533,555 Q533,559 539,567 Q551,582 554,596 Q557,610 550,615 Q544,617 516,617 Q485,617 470,611 Q455,605 436,585 Q421,570 414.5,566.5 Q408,563 386,560 Q369,559 336,543 Q303,527 285,526 Q267,525 252,532 Q238,539 227.5,547.5 Q217,556 218,560 Q221,569 247,563 Q260,558 274,563 Q291,567 308.5,576 Q326,585 333,594 Q341,606 341.5,627 Q342,648 338.5,654.5 Q335,661 318,673 Q303,684 294.5,695 Q286,706 288,711 Q290,715 303,716"/> 
            <glyph glyph-name="少" unicode="&#x5C11;" horiz-adv-x="732" d=" M349,681 Q354,684 364,676 Q369,672 401,669 Q432,667 448,660 Q464,653 476,636 Q480,628 481,547 Q482,439 489,414 Q493,401 511,428 Q517,438 525,452 Q549,494 556,501.5 Q563,509 572,529 Q581,549 579,560.5 Q577,572 581.5,573.5 Q586,575 597,569.5 Q608,564 617,554 Q625,547 626,543.5 Q627,540 626,527 Q624,508 616,493 Q609,480 611.5,474.5 Q614,469 630,469 Q665,469 698,441 Q731,413 731,382 Q732,368 721,355 Q710,342 703.5,339 Q697,336 683,337 Q674,338 668.5,341 Q663,344 651,358 Q632,376 627.5,385 Q623,394 622,410 Q622,427 616,442 Q610,455 603.5,455.5 Q597,456 589,442 Q581,428 567,409.5 Q553,391 546.5,376 Q540,361 531.5,348 Q523,335 523,332 Q523,329 517,318 L503,289 Q496,273 482,258 Q468,243 455,223 Q415,160 415,155 Q415,152 377,102 L350,64 Q317,18 294,-4 Q282,-15 265,-32 Q234,-64 206,-68 Q193,-70 187,-67 Q181,-64 169,-49 Q151,-25 167,-25 Q182,-25 221.5,14.5 Q261,54 304,110 Q349,169 357,179 Q378,203 409,256 Q419,274 416,281 Q413,288 390,301 Q345,326 329,329 Q323,331 320,328.5 Q317,326 308,316 Q295,300 287,289 Q275,270 250,270 Q229,270 205,296 Q198,304 192.5,323.5 Q187,343 187,360 Q187,374 199.5,389.5 Q212,405 222,402 Q227,400 230.5,391 Q234,382 240,378 Q245,375 249,376 Q253,377 268,384 Q289,395 292,398 Q298,404 307.5,395.5 Q317,387 317,376 Q317,356 339,357 Q384,358 400,365 Q413,370 415.5,383 Q418,396 415,443 Q412,497 412.5,521.5 Q413,546 413,575 Q412,596 411,601 Q410,606 403,611 Q394,619 371,640 Q337,674 349,681"/> 
            <glyph glyph-name="已" unicode="&#x5DF2;" horiz-adv-x="708" d=" M443,598 Q480,601 486,600 Q494,600 506,590.5 Q518,581 523,571 L529,558 L519,540 Q506,516 462,467 Q435,438 435,409 Q435,399 424.5,387 Q414,375 399,369 Q382,362 363,364 Q349,365 344,363.5 Q339,362 322,353 Q302,339 293,331 Q284,323 279,311 Q254,251 265,201 Q271,171 304,155 Q318,148 356,147 Q440,143 461,155 Q471,161 493,163 Q536,168 549,174 Q556,178 566,181 Q581,187 588.5,195 Q596,203 599,218 Q601,229 592,238 Q585,247 587,251.5 Q589,256 602,260 Q614,265 619.5,264.5 Q625,264 634,257 Q645,251 664,240 Q708,216 695,191 Q691,184 677,170.5 Q663,157 656,154 Q649,152 627,150 Q605,148 594,143 Q583,138 575,138 Q567,138 560,134.5 Q553,131 538,133 Q523,135 509.5,127 Q496,119 480.5,117.5 Q465,116 454.5,110.5 Q444,105 435,107.5 Q426,110 409,106 Q392,102 349.5,102 Q307,102 294,106 Q282,111 281,109 Q279,107 253.5,122.5 Q228,138 220,147 Q200,165 194.5,198.5 Q189,232 197,271 Q211,329 209,367 L208,399 L217,404 Q235,418 240,425 Q245,432 247,448 Q249,471 259.5,476.5 Q270,482 292,471 Q319,459 319,425 Q319,412 322,412 Q334,412 365,445 Q389,470 403,500 Q417,530 417,533 Q417,542 391,538 Q341,531 285,563 Q263,576 269,582 Q271,584 329,584 Q417,585 437,595"/> 
            <glyph glyph-name="帮" unicode="&#x5E2E;" horiz-adv-x="731" d=" M400,711 Q403,719 423,710 Q450,698 458,683 Q462,674 459,656 Q456,639 457.5,632.5 Q459,626 468,623 Q489,616 488,605 Q487,594 466,588 Q449,582 448,568 Q447,554 463,549 Q473,545 482,537.5 Q491,530 491,524 Q491,511 467,500 Q448,490 448,483 Q448,474 470,486 Q487,494 505,494 Q528,495 530.5,500 Q533,505 518,522 Q505,536 502,542 Q499,548 501,552.5 Q503,557 508,555 Q514,554 523,558.5 Q532,563 543,559 Q570,551 603,569 Q628,581 640,589 Q666,607 687,595 Q725,577 708,553 L680,513 Q662,488 661.5,480.5 Q661,473 678,466 Q690,460 707.5,444 Q725,428 728,419 Q731,410 727,400 Q722,389 715,384 Q708,379 690,374 Q641,361 614,382 Q592,398 588,384 Q585,373 585,334 Q586,289 583,286 Q580,283 567.5,285 Q555,287 543.5,300.5 Q532,314 529,314 Q521,314 512,276 Q508,260 512,253 Q521,239 545,254 Q555,260 570,265.5 Q585,271 589.5,275 Q594,279 617,284.5 Q640,290 646,289 Q653,287 669.5,277 Q686,267 693,259 Q702,252 706,232 L711,212 L704,200 Q697,188 687.5,176 Q678,164 671,151 Q665,139 654.5,129.5 Q644,120 634,118 Q613,114 578.5,134.5 Q544,155 531,181 Q520,201 510,181 Q505,170 504.5,154 Q504,138 506,74 Q508,0 512.5,-11.5 Q517,-23 518,-57 Q520,-88 516.5,-97 Q513,-106 501,-106 Q492,-106 484.5,-100.5 Q477,-95 465,-78 L452,-61 L453,39 Q454,140 450,142 Q445,144 422.5,128 Q400,112 387,98 Q362,68 354.5,62 Q347,56 336,56 Q311,56 298,84 Q291,100 291,104 Q291,107 303,143 Q315,179 322,195 Q328,210 333,216 Q338,222 343,217 Q346,214 358,193 Q370,172 373.5,170.5 Q377,169 394.5,182 Q412,195 428,201 Q445,207 450.5,213.5 Q456,220 458,234 Q460,250 458.5,294 Q457,338 454,345 Q444,372 452,381 Q456,385 462.5,383.5 Q469,382 487.5,371.5 Q506,361 513,348 Q516,340 518.5,337 Q521,334 525,334 Q530,335 530.5,365.5 Q531,396 532,430 Q533,453 532.5,459 Q532,465 529,467 Q523,469 519.5,465 Q516,461 503,457 Q490,453 471,438.5 Q452,424 442,418 Q413,402 397,318 Q391,294 381.5,277.5 Q372,261 372,258 Q372,255 363,243.5 Q354,232 348,230 Q343,227 328.5,233.5 Q314,240 303,255 L294,271 L305,283 Q317,296 322,307 Q326,314 326,316 Q326,318 322,321 Q317,325 298,314.5 Q279,304 255,304 Q218,304 191,329 Q161,356 161,381 Q161,407 172,409 Q178,410 183,399 Q192,376 214,363 Q221,358 226.5,358 Q232,358 247,360 Q269,363 281,371 L301,383 Q347,412 358,447 Q362,459 356,464 Q350,469 328,476 Q309,481 294.5,489.5 Q280,498 280,502 Q280,506 313,508 Q348,509 362,518 Q376,527 380,548 Q384,571 365,571 Q357,571 339.5,575.5 Q322,580 313,584 Q291,594 290,604 Q290,611 304,606 Q315,602 341.5,603.5 Q368,605 376,609 Q386,614 391.5,623.5 Q397,633 401,657 Q406,678 406,684 Q406,690 403,697 Q398,707 400,711 M618,514 Q618,517 611.5,519 Q605,521 601,519 Q593,515 590.5,505.5 Q588,496 588,469 Q588,446 588.5,440 Q589,434 593.5,429 Q598,424 601.5,423.5 Q605,423 618,426 Q632,429 638,433.5 Q644,438 642,442 Q641,445 625.5,457.5 Q610,470 608,476.5 Q606,483 612,498 Q618,513 618,514 M602,224 Q597,229 594.5,229 Q592,229 578,224 Q544,211 544,203 Q544,199 552,195 Q560,191 572,190 Q593,187 602,208 Q605,215 605,217.5 Q605,220 602,224"/> 
            <glyph glyph-name="并" unicode="&#x5E76;" horiz-adv-x="698" d=" M531,493 Q537,499 554,487 Q580,467 585,448 Q590,435 592.5,431 Q595,427 600,428 Q607,429 646,431 Q674,432 680.5,431.5 Q687,431 692,427 Q697,423 697.5,421 Q698,419 694,414 Q689,406 674.5,398.5 Q660,391 646,388 Q630,386 610,376.5 Q590,367 585.5,359 Q581,351 581,298.5 Q581,246 584,208 Q589,173 590,157 Q594,106 599,93 Q603,81 603,66 Q603,51 606,38 Q621,-32 611,-58 Q609,-64 606.5,-65 Q604,-66 592,-64 Q567,-62 551,-41 Q543,-32 545,-18 Q548,27 542,98 Q539,139 536,234 Q533,329 529,333.5 Q525,338 509,333 Q493,328 482,320.5 Q471,313 463,310 Q445,303 433,284 Q424,269 421,246 Q418,223 413.5,210 Q409,197 405.5,178 Q402,159 398,151 Q394,143 394,131.5 Q394,120 385.5,112.5 Q377,105 369,105 Q364,105 347.5,116 Q331,127 331,131 Q331,133 321,138 Q311,143 308,147 Q305,152 314,224 Q316,240 292,233 Q257,224 234,228 Q213,232 200,255 Q181,295 214,331 L229,346 L235,341 Q241,335 244,323 Q251,299 284,303 Q306,307 337.5,331 Q369,355 372,372 Q375,380 375,400 Q375,420 380,423 Q393,430 407,424 Q411,423 419,409.5 Q427,396 427,389 Q427,384 431.5,377.5 Q436,371 446,373 Q456,375 475,384.5 Q494,394 508,399 Q523,405 528,412 Q533,419 535,437 Q536,457 532,473.5 Q528,490 531,493 M525,745 Q533,750 563,739 Q583,730 590.5,720.5 Q598,711 599,693 Q599,676 587.5,654.5 Q576,633 576,630 Q576,627 566,616 Q556,605 546,587 Q537,573 538,567.5 Q539,562 551,559 Q558,557 566,552 Q574,547 576,542 Q578,537 560.5,523 Q543,509 532,506 Q507,499 489,485 Q482,479 464.5,470 Q447,461 443,461 Q439,461 426,454 Q411,447 394.5,445 Q378,443 367.5,448 Q357,453 341,469 Q325,485 323,492 Q321,501 326.5,503.5 Q332,506 346,504 Q380,498 401,507 Q409,511 408.5,516.5 Q408,522 400,524 Q384,527 371,558 Q364,576 362,578.5 Q360,581 358,589 Q356,597 343.5,620 Q331,643 333,646.5 Q335,650 355.5,647.5 Q376,645 393,641 Q410,636 422,625 Q437,609 442,598 Q447,587 449,566 Q450,549 451,545 Q452,541 456,541 Q463,541 472,554 Q481,567 485,581 Q490,598 503,634.5 Q516,671 516,678 Q516,685 507.5,697 Q499,709 489,716 Q478,724 478,727 Q478,730 492,736 Q506,742 513,742 Q520,742 525,745"/> 
            <glyph glyph-name="库" unicode="&#x5E93;" horiz-adv-x="779" d=" M625,620 Q637,622 659,621 Q681,620 685,617 Q689,613 688,607.5 Q687,602 682,598 Q675,593 646,581 Q617,569 604.5,560 Q592,551 577,544 Q566,538 563,534.5 Q560,531 564,526.5 Q568,522 580,514 Q591,508 599,499 Q607,490 607,485 Q607,477 612.5,476.5 Q618,476 630,482 Q646,491 660,491 Q675,491 684.5,482 Q694,473 691,463.5 Q688,454 675,449 Q652,442 639,422 Q633,413 635,397 Q636,380 639,376.5 Q642,373 654,377 Q665,380 672.5,380 Q680,380 691.5,369.5 Q703,359 703,353 Q703,346 694,337 Q685,328 675,322 Q655,312 648,295 Q642,280 658,280 Q670,280 695,289 Q713,295 729.5,298.5 Q746,302 757,297 Q779,287 764,274 Q759,270 733.5,259 Q708,248 695,245 Q666,240 652,220 L641,205 L641,151 Q642,96 647,68 Q652,40 653,2 Q655,-33 651,-40 Q647,-47 631,-43 Q613,-38 606.5,-33.5 Q600,-29 593,-16 Q582,7 579,26.5 Q576,46 574,105 Q573,157 567,158 Q562,159 543,141 Q526,123 513,116 Q500,109 474,101 Q434,88 401,105 Q386,112 369.5,129 Q353,146 354,152 Q355,160 361.5,161.5 Q368,163 384,159 Q404,154 415,154 Q427,154 451,166 Q475,178 498,194 Q526,213 538,222 Q582,250 563,257 Q559,258 534.5,252.5 Q510,247 499,242 Q483,236 458,257 Q446,268 444,281 Q442,294 441.5,300 Q441,306 449,329.5 Q457,353 457,355 Q457,357 450,365 Q436,378 433.5,382 Q431,386 433,389 Q434,395 449.5,395 Q465,395 477,404 Q490,413 505.5,432 Q521,451 529,465 Q536,481 537.5,494 Q539,507 534.5,509 Q530,511 525,506 Q517,500 497.5,493.5 Q478,487 460,485 Q436,482 431,476.5 Q426,471 426,452 Q426,432 424,429.5 Q422,427 419,405 Q411,339 383,280 Q377,266 371,247 Q364,227 335.5,178 Q307,129 292,113 Q282,101 277,90 Q270,75 254.5,58.5 Q239,42 221,32 Q199,18 177,16 Q125,10 120,38 Q117,57 133,54 Q142,53 154,64 Q170,79 197.5,110 Q225,141 233,155 Q284,239 312,294 L320,310 Q326,322 347,366.5 Q368,411 368,413 Q368,414 380.5,445 Q393,476 393,484 Q393,492 379,506 Q334,550 344,564 Q348,570 364,565 Q405,550 452,558 Q479,563 512,580 Q553,600 574,607.5 Q595,615 625,620 M576,353 Q575,359 569.5,359 Q564,359 557,352 Q546,336 555,334 Q561,334 568.5,340 Q576,346 576,353 M452,723 Q455,732 497,730 Q539,730 557,726 Q575,722 591,712 Q607,701 612,693.5 Q617,686 615,675 Q613,663 603,653 Q593,643 580,642 Q566,640 541,635 Q498,627 496,633 Q495,636 502,651 Q510,666 506,672 Q500,685 469,708 Q452,721 452,723"/> 
            <glyph glyph-name="应" unicode="&#x5E94;" horiz-adv-x="778" d=" M596,431 Q608,442 614.5,443 Q621,444 642,439 Q682,430 696,407 Q701,398 699.5,390.5 Q698,383 683,341 Q671,307 667,298 Q663,289 661.5,282 Q660,275 643,257 Q622,234 626,228.5 Q630,223 671,223 Q710,222 723,218 Q760,209 769,202 Q778,195 770,182 Q762,166 751.5,163 Q741,160 684,157 Q628,154 617,151 Q581,138 570,138 Q563,138 557,134 Q551,130 518,124.5 Q485,119 443,105 Q408,94 391.5,91.5 Q375,89 360,96 Q345,103 337.5,115.5 Q330,128 324,155 Q320,175 330,181 Q336,184 349.5,173.5 Q363,163 377,163 Q391,163 415,171 Q439,179 439,184 Q439,188 431,191 Q425,194 412,207.5 Q399,221 395,227 Q390,235 385.5,257.5 Q381,280 384,295 Q387,310 392,333 Q397,352 402,363 Q407,374 412,373 Q414,372 424,356.5 Q434,341 441,329 Q446,320 460,299 Q474,278 474,276 Q474,270 488,244 Q502,218 505,218 Q511,218 522,228 Q533,238 536,246 Q541,257 551,268.5 Q561,280 573,302 Q585,324 596,342 Q610,365 612.5,381 Q615,397 605,400 Q601,401 577.5,380.5 Q554,360 548,350 Q541,336 542.5,324 Q544,312 539,304 Q531,293 523.5,291 Q516,289 504,296 Q465,316 461,367 Q460,381 460.5,384.5 Q461,388 465,389 Q470,392 482,387 Q494,382 503,374 Q512,366 517,366 Q526,366 596,431 M438,695 Q441,698 445.5,697 Q450,696 483,689.5 Q516,683 527.5,676 Q539,669 545,666 Q552,664 562.5,649.5 Q573,635 573,628 Q573,619 570,607.5 Q567,596 569.5,593.5 Q572,591 605,590 Q644,589 658,578 Q663,573 662,568.5 Q661,564 651,553 Q641,545 626,538 Q611,531 602,531 Q597,531 587,523.5 Q577,516 566.5,514.5 Q556,513 543.5,503.5 Q531,494 521,492 Q511,490 503.5,485 Q496,480 483,473.5 Q470,467 454.5,455.5 Q439,444 425,438 Q395,423 389,393 Q387,380 383,373.5 Q379,367 373,346 Q366,323 329,240 Q306,192 306,190 Q306,187 292.5,160 Q279,133 271,121 Q252,93 223.5,62.5 Q195,32 176,21 Q139,-2 123,17 Q116,24 116.5,28.5 Q117,33 125,43 Q134,56 145,71 L220,188 Q254,239 293.5,317.5 Q333,396 333,410 Q333,422 313,430 Q299,436 287.5,451 Q276,466 271,483 Q261,517 276,524 Q281,526 288,520 Q311,501 326,507 Q387,529 422,549 Q439,559 451,563 Q458,565 461,568 Q464,571 461.5,573.5 Q459,576 452,576 Q434,578 445,593 Q454,607 452.5,614.5 Q451,622 438,630 Q427,636 419,649 Q411,662 401,669 Q382,682 389,690 Q392,693 438,695"/> 
            <glyph glyph-name="开" unicode="&#x5F00;" horiz-adv-x="669" d=" M508,547 Q509,550 511,549.5 Q513,549 529,543 Q551,535 559,524.5 Q567,514 567,496 Q567,479 572.5,475.5 Q578,472 603,476 Q639,480 654,478.5 Q669,477 669,468 Q669,454 623,431 Q592,417 581,409.5 Q570,402 567,395 Q560,373 576,224 Q579,194 580,174 Q581,154 586,132 Q595,86 597,65 Q604,5 615,-45 Q621,-66 619.5,-73.5 Q618,-81 607,-89 Q594,-98 572.5,-98 Q551,-98 543,-89 Q538,-84 543,-74 Q549,-62 543,-32 Q538,-12 533,19 Q528,51 519,127 Q516,155 513,233.5 Q510,312 510,346 Q511,370 506,373 Q501,376 479,365 Q460,354 452.5,348 Q445,342 433,327 Q420,310 407.5,272 Q395,234 389,218 Q349,124 341,94 Q338,81 331.5,74 Q325,67 317,69 Q310,71 299.5,80.5 Q289,90 284,100 Q275,114 279,130 Q283,146 301,185 Q312,208 314,215.5 Q316,223 327.5,254 Q339,285 336,288 Q333,291 309,283.5 Q285,276 277.5,276 Q270,276 254.5,284 Q239,292 233,299 Q217,323 223,366 Q226,389 236,388 Q237,388 239,387 Q243,386 253,370.5 Q263,355 268,352 Q274,349 297,351 Q320,353 327,357 Q334,362 346,368 Q371,380 372,422 Q372,436 370,442.5 Q368,449 359,464 Q344,493 350,495 Q353,496 360,495 Q385,491 403.5,475.5 Q422,460 430,437 Q435,422 438,420 Q446,414 462,422 L486,436 Q503,445 508,452 Q514,460 514.5,484.5 Q515,509 511,526 Q506,543 508,547 M497,640 Q523,644 534.5,642.5 Q546,641 561,631 Q578,620 578,616.5 Q578,613 566,600 Q557,591 536.5,581.5 Q516,572 499,568 Q487,566 479,563 Q470,558 449,559 Q428,560 413,566 Q381,576 351,601 Q336,615 338.5,618 Q341,621 364.5,617.5 Q388,614 418.5,619.5 Q449,625 464,631 Q479,637 497,640"/> 
            <glyph glyph-name="式" unicode="&#x5F0F;" horiz-adv-x="773" d=" M289,620 Q291,625 325,617 Q360,610 372.5,595.5 Q385,581 385,550 Q385,498 398,484 L403,478 L428,483 Q454,487 483.5,487 Q513,487 519,482 Q524,477 524.5,473 Q525,469 521,461 Q515,453 458,425 Q427,410 427,388 Q428,372 467.5,302 Q507,232 539,192 Q572,151 611.5,112 Q651,73 675,58 Q696,44 703,55 Q710,66 712,110 Q713,147 717,154 L721,161 L729,150 Q737,140 739,123.5 Q741,107 744,99.5 Q747,92 750,76 Q753,60 763,39 Q773,18 771,13 Q769,7 750.5,-9 Q732,-25 725,-25 Q698,-25 678,-10 Q668,-1 653,6 Q638,13 620.5,30 Q603,47 593,53 Q583,59 572,71 Q526,122 512,141 Q503,155 490,173 Q477,191 467,208 Q457,225 453,226 Q449,228 439,217 Q429,206 423,195 Q419,187 388.5,154.5 Q358,122 355,122 Q352,122 343,116 Q336,110 321.5,102 Q307,94 304,94 Q300,94 283.5,82.5 Q267,71 254,67 Q206,55 187,45 Q153,31 133,66 Q111,104 124,133 Q136,156 157,136 Q165,127 168.5,126 Q172,125 186,129 Q199,133 211,136.5 Q223,140 236,152 Q247,161 263,183 Q279,205 279,210 Q279,214 285,223 Q292,232 288.5,234.5 Q285,237 266,237 Q224,238 196,266 Q181,280 184,285 Q187,290 197,290 Q215,291 244.5,302 Q274,313 294,327 Q308,336 311,336 Q314,336 314,342 Q314,348 312,348 Q310,348 298,343 Q277,336 242,346 Q231,351 223,353 Q215,354 191.5,368.5 Q168,383 168,385 Q168,389 174.5,392 Q181,395 188,394 Q214,391 260.5,406.5 Q307,422 330,443 Q341,452 341.5,459 Q342,466 336,489 Q333,500 324.5,540 Q316,580 316,585 Q316,586 301.5,601.5 Q287,617 289,620 M392,345 Q372,366 367,365 Q352,364 341.5,358.5 Q331,353 333,345 Q334,339 345,339 Q356,339 362.5,333 Q369,327 367,319 Q365,310 365,301.5 Q365,293 357,284 Q349,276 349,272 Q349,268 356,259 Q363,250 365,235 Q369,213 380.5,210.5 Q392,208 414,223 Q430,233 438,235 Q451,238 438,257 Q432,266 392,345 M462,634 Q491,640 508,639 Q525,638 535.5,629.5 Q546,621 557,617 Q568,612 578,599 Q588,586 588,577 Q588,571 579,560 Q572,553 567,551 Q562,549 545,547 Q521,545 513,542 Q506,539 502.5,542 Q499,545 496,557 Q492,573 485.5,588.5 Q479,604 479,605.5 Q479,607 468.5,617 Q458,627 462,634"/> 
            <glyph glyph-name="循" unicode="&#x5FAA;" horiz-adv-x="790" d=" M590,641 Q593,644 606,643 Q619,642 628,638 Q640,633 651.5,621.5 Q663,610 663,602 Q663,595 631.5,565 Q600,535 580,524 Q558,510 542,499 Q526,488 518,486 Q511,485 502.5,478 Q494,471 491,464 Q487,456 484,427.5 Q481,399 478,388.5 Q475,378 475,375 Q475,371 481.5,370.5 Q488,370 495,374 Q506,379 529,392 Q549,402 554,409 Q559,416 561,435 Q562,451 558,460 Q548,481 557,490 Q563,496 586,488 Q620,478 626,451 Q627,450 627,448 Q629,439 635.5,438 Q642,437 676,440 Q684,440 688,441 Q727,444 731,442 Q735,440 735,433 Q735,426 730,425 Q725,423 713,422 Q696,419 669,411.5 Q642,404 635,400 Q612,387 603,371 Q597,358 586,299.5 Q575,241 578,238 Q582,234 583,235.5 Q584,237 597.5,256.5 Q611,276 661,323 Q700,360 713,368.5 Q726,377 741,377 Q763,377 781,356 Q790,345 790,332.5 Q790,320 787,312 Q783,300 776,198 Q771,135 776,125 Q783,111 773,103 Q768,99 768,97 Q768,95 771.5,87 Q775,79 774.5,75.5 Q774,72 769,62 Q762,47 762,34.5 Q762,22 757.5,18.5 Q753,15 748,1 Q744,-10 739.5,-15 Q735,-20 722,-28 Q712,-32 708.5,-32.5 Q705,-33 693,-29 Q676,-25 661,-22 Q640,-16 627.5,-9 Q615,-2 603,13 Q588,31 575,54 Q567,68 563,72 Q559,76 550,79 Q537,83 526,98 L515,113 L516,152 Q517,191 528,247 Q542,319 543.5,331.5 Q545,344 542,348 Q539,352 522.5,339 Q506,326 489,321 Q475,317 469.5,313 Q464,309 462,299 Q459,292 451,275.5 Q443,259 443,256 Q443,253 435,241 Q427,229 425,217 Q421,194 379,168 Q357,154 354,154 Q344,154 341,118 Q339,93 336,80 Q334,71 326.5,63.5 Q319,56 312,56 Q304,56 289,64 Q274,72 268,81 Q262,88 261,94 Q260,100 260,118 Q260,152 275,203 Q283,232 277,232 Q273,231 249,205 Q182,133 146,126 Q135,124 132.5,122 Q130,120 118,125 Q106,130 102,135 Q98,140 106,151.5 Q114,163 120,166 Q124,168 153,202 Q182,236 197,256 Q211,275 227,293 Q243,311 248,319.5 Q253,328 267,350 Q281,372 281,374.5 Q281,377 288,388 Q295,399 300,413 Q305,427 309,434.5 Q313,442 310,446 Q306,450 303.5,449 Q301,448 287,438 Q261,418 246,426 Q231,435 253,456 Q264,469 268.5,480.5 Q273,492 283,506 Q293,519 307,548.5 Q321,578 321,584 Q321,591 326,611 Q331,631 334,634 Q337,637 345,637 Q358,637 376,615 Q394,593 394,578 Q394,552 380,538 Q371,529 358,509 Q347,492 347.5,486.5 Q348,481 362,471 Q384,456 382,437 Q380,427 371.5,404 Q363,381 357,369 L344,344 L329,315 Q322,300 316,289 L309,278 L317,260 Q325,243 330,226 Q336,208 340.5,205 Q345,202 353,211 Q360,221 378.5,255 Q397,289 401,304 Q405,318 403,322.5 Q401,327 389,333 Q381,337 379,340 Q377,343 380.5,344.5 Q384,346 393,345 Q407,345 411,351 Q416,357 422.5,379.5 Q429,402 429,416 Q429,434 420,444 Q411,454 411,455.5 Q411,457 421,468 Q427,477 428,481 Q429,485 427,500 Q425,522 430,527.5 Q435,533 440,531 Q445,529 456,517 Q469,506 476,508 Q482,510 530,557 Q578,604 583,613 Q587,621 587,630 Q587,639 590,641 M710,292 Q705,296 702.5,295.5 Q700,295 690,288 Q680,281 661.5,258.5 Q643,236 643,230 Q643,225 659,212 Q692,188 692,179 Q692,174 685,165.5 Q678,157 678,153 Q678,148 687,138 Q696,128 701,128 Q707,128 708.5,141.5 Q710,155 713,236 Q715,273 714.5,281.5 Q714,290 710,292 M628,173 Q622,181 615,175 Q611,172 606.5,162.5 Q602,153 602,146 Q602,137 598,128.5 Q594,120 592,105 Q591,94 592.5,88.5 Q594,83 601,69 Q611,52 620.5,44 Q630,36 649,32 Q664,28 670.5,30.5 Q677,33 689,47 Q697,58 698.5,63 Q700,68 700,82 Q700,103 697.5,103 Q695,103 688,95.5 Q681,88 676,88 Q668,88 658,96 Q648,104 641,115 Q634,124 632,130 Q630,136 632,149 Q632,169 628,173"/> 
            <glyph glyph-name="快" unicode="&#x5FEB;" horiz-adv-x="809" d=" M120,330 Q125,334 127,333 Q129,332 138,323 Q157,303 158,241 Q158,207 161,200 Q166,186 157,178 Q152,172 139.5,171.5 Q127,171 118,176 Q109,181 98.5,192.5 Q88,204 85,213 Q78,237 89.5,275.5 Q101,314 120,330 M231,640 Q235,643 237,642.5 Q239,642 248,637 Q275,624 293,599 Q305,583 294,550 Q289,535 284,501 Q279,467 280,454 Q281,443 284,440 Q287,437 301,432 Q328,424 346,398 Q359,381 360,371 Q361,361 352,346 Q340,322 323,329 Q314,333 302,345.5 Q290,358 286,369 Q284,376 281.5,379 Q279,382 277,382 Q272,381 266,314 Q265,297 261.5,277 Q258,257 257,169 Q256,102 258.5,71 Q261,40 269,2 Q277,-30 268,-38 Q260,-45 244,-39 Q228,-33 217,-19 Q194,13 203,152 Q208,220 208.5,247.5 Q209,275 213,289 Q221,329 228,438 Q231,497 234,510 Q237,523 235.5,529.5 Q234,536 236.5,571 Q239,606 232.5,622 Q226,638 231,640 M435,661 Q449,666 453,666 Q460,667 474,655.5 Q488,644 493,634 L500,621 L494,595 Q482,547 481,513 L480,483 L488,482 Q495,482 525,492 Q568,506 582.5,506 Q597,506 614,492 Q624,483 626,469 L627,456 L595,423 Q563,392 555.5,381.5 Q548,371 551,367 Q554,363 570.5,368.5 Q587,374 607,375 L627,375 L638,364 Q649,352 649,346.5 Q649,341 639,332 Q621,315 588,316 Q575,317 548.5,307.5 Q522,298 504,286 Q484,274 480,270.5 Q476,267 476,261 Q477,255 490,248 Q503,241 556,216 Q601,196 622.5,190.5 Q644,185 709,176 Q763,169 790,153 Q805,144 807,138.5 Q809,133 804,121 Q800,111 797,108.5 Q794,106 785,103 Q770,100 748,101 Q666,106 643,114 Q627,120 624,120 Q621,120 584,144 Q498,198 478,227 Q473,234 468,231 Q464,229 459,215.5 Q454,202 453,194 Q453,187 441.5,158 Q430,129 428,119.5 Q426,110 419,94 Q412,80 396,66 Q380,52 365,45 Q357,42 352.5,42.5 Q348,43 336,47 Q320,54 309,67 Q300,80 300.5,86.5 Q301,93 312,94 Q351,99 376,153 Q385,171 392,193 Q399,215 396,218 Q394,222 389,221.5 Q384,221 382,218 Q379,215 357.5,208 Q336,201 330,201 Q322,201 312,205.5 Q302,210 298,215 Q294,223 289.5,237.5 Q285,252 285,260 Q285,270 294.5,280 Q304,290 307.5,290 Q311,290 322,279 Q331,269 337.5,268 Q344,267 364,273 Q377,277 383,281.5 Q389,286 402,300 Q421,322 425,333 Q429,344 431,383 L433,421 L420,448 Q406,476 409.5,479.5 Q413,483 421,478 Q427,474 429.5,473.5 Q432,473 434.5,477.5 Q437,482 438,489.5 Q439,497 442,511 L448,573 Q451,606 450.5,613.5 Q450,621 444,628 Q437,635 429,639 Q420,644 421.5,650.5 Q423,657 435,661 M505,416 Q504,423 498,422.5 Q492,422 485,415 Q477,408 476,401 Q475,394 479,389 Q484,385 494.5,397 Q505,409 505,416"/> 
            </font>
</defs>
</svg>
